<svg width="110" height="108" viewBox="0 0 110 108" fill="none" xmlns="http://www.w3.org/2000/svg">
<g clip-path="url(#clip0_141_1136)">
<path d="M54.9597 -0.105504C55.3207 -0.115293 55.3207 -0.115293 55.689 -0.125279C57.5965 0.167892 59.1705 1.35238 60.7068 2.43893C60.8922 2.56819 61.0775 2.69745 61.2685 2.83063C61.6478 3.09523 62.0267 3.36041 62.4052 3.62617C63.0575 4.08373 63.7126 4.53727 64.3682 4.99037C64.8126 5.29761 65.2565 5.60552 65.7002 5.91363C66.3365 6.35531 66.9733 6.79632 67.6103 7.23693C67.7763 7.35178 67.9423 7.46663 68.1133 7.58496C68.4307 7.80457 68.7482 8.0241 69.0657 8.24352C69.2089 8.3426 69.352 8.44168 69.4995 8.54376C69.6247 8.63038 69.75 8.717 69.879 8.80624C70.2951 9.09929 70.7046 9.40021 71.1133 9.70309C71.1164 9.55967 71.1196 9.41626 71.1228 9.26849C71.1389 8.60905 71.1597 7.94981 71.1804 7.29049C71.1853 7.06494 71.1901 6.83939 71.1951 6.607C71.2691 4.44789 71.6728 2.62513 73.2617 1.05465C74.7483 0.0656488 76.0983 -0.155771 77.8624 -0.132695C78.089 -0.133204 78.3155 -0.133713 78.5489 -0.134237C79.0245 -0.134031 79.5001 -0.131233 79.9756 -0.125949C80.7003 -0.118691 81.4245 -0.121602 82.1492 -0.125691C82.6136 -0.124236 83.078 -0.122196 83.5423 -0.119511C83.757 -0.120558 83.9717 -0.121604 84.1928 -0.122682C85.8537 -0.0954448 86.9865 0.275773 88.2471 1.34469C89.7149 3.02604 90.0887 4.55573 90.0683 6.70835C90.0684 6.88554 90.0685 7.06272 90.0685 7.24527C90.0682 7.82506 90.0649 8.4048 90.0615 8.98458C90.0607 9.38889 90.0601 9.79319 90.0597 10.1975C90.058 11.2572 90.0538 12.317 90.0491 13.3767C90.0446 14.4598 90.0427 15.543 90.0405 16.6261C90.0359 18.7481 90.0286 20.8701 90.0195 22.9922C90.1884 23.0565 90.3572 23.1209 90.5311 23.1873C91.055 23.3984 91.4411 23.6221 91.8936 23.9513C92.0424 24.0584 92.1912 24.1655 92.3445 24.2759C92.5034 24.3917 92.6623 24.5076 92.8259 24.6269C93.1735 24.8769 93.5212 25.1265 93.8691 25.3759C94.049 25.505 94.2288 25.634 94.4141 25.767C95.2962 26.3948 96.1889 27.0077 97.0825 27.6196C97.2607 27.7417 97.4389 27.8638 97.6225 27.9897C97.9852 28.2382 98.3481 28.4866 98.711 28.7349C99.98 29.6038 101.247 30.4751 102.514 31.3473C103.197 31.8176 103.882 32.2854 104.569 32.7513C109.551 36.1449 109.551 36.1449 110 37.9687C110.23 39.9057 110.175 41.6566 108.926 43.2422C107.723 44.4259 106.243 45.1498 104.535 45.2197C102.87 45.147 101.709 44.6099 100.377 43.6377C100.167 43.4848 99.9566 43.332 99.7399 43.1746C99.5013 42.9992 99.5013 42.9992 99.2578 42.8203C99.2578 42.9489 99.2577 43.0775 99.2577 43.2101C99.2548 50.8372 99.2463 58.4643 99.2306 66.0914C99.2287 67.0075 99.2269 67.9237 99.225 68.8398C99.2245 69.1134 99.2245 69.1134 99.224 69.3925C99.2182 72.3442 99.2163 75.2959 99.2157 78.2477C99.2151 81.2773 99.2103 84.3068 99.2019 87.3364C99.1968 89.2053 99.1948 91.0741 99.1969 92.9429C99.1981 94.2251 99.1953 95.5073 99.1894 96.7895C99.1861 97.5289 99.1845 98.2681 99.1877 99.0075C99.1902 99.8105 99.1861 100.613 99.1803 101.416C99.1826 101.648 99.1849 101.88 99.1873 102.119C99.1638 103.883 98.6961 105.258 97.5257 106.616C97.3883 106.724 97.2509 106.833 97.1094 106.945C96.972 107.058 96.8347 107.172 96.6931 107.288C95.7404 107.912 94.93 108.053 93.7935 108.054C93.5126 108.056 93.2316 108.057 92.9421 108.058C92.6306 108.058 92.3192 108.057 92.0077 108.056C91.6766 108.057 91.3455 108.058 91.0143 108.059C90.1039 108.062 89.1936 108.062 88.2832 108.061C87.3015 108.061 86.3198 108.064 85.3381 108.066C83.4146 108.069 81.4911 108.07 79.5677 108.07C78.0043 108.071 76.4409 108.072 74.8776 108.073C70.4462 108.077 66.0148 108.079 61.5834 108.078C61.3444 108.078 61.1055 108.078 60.8593 108.078C60.5004 108.078 60.5004 108.078 60.1343 108.078C56.2566 108.078 52.379 108.082 48.5013 108.088C44.5207 108.094 40.5401 108.097 36.5595 108.097C34.3243 108.096 32.0891 108.098 29.8539 108.102C27.9509 108.106 26.0478 108.107 24.1448 108.104C23.1738 108.103 22.2029 108.103 21.2319 108.106C20.3428 108.11 19.4537 108.109 18.5646 108.105C18.2432 108.105 17.9218 108.105 17.6004 108.108C15.6148 108.121 14.1859 108.067 12.6313 106.757C12.4606 106.556 12.4606 106.556 12.2864 106.352C12.1115 106.154 12.1115 106.154 11.9331 105.952C10.9218 104.477 10.8636 103.234 10.8714 101.492C10.87 101.241 10.8685 100.99 10.8671 100.731C10.8638 100.037 10.8633 99.3433 10.8641 98.6491C10.8642 97.8996 10.8606 97.15 10.8575 96.4005C10.8526 95.1027 10.8501 93.805 10.8491 92.5072C10.8477 90.6309 10.8428 88.7546 10.837 86.8783C10.8277 83.834 10.8213 80.7897 10.8166 77.7453C10.8121 74.7884 10.8063 71.8315 10.7986 68.8746C10.7981 68.6923 10.7976 68.5099 10.7972 68.3221C10.7948 67.4074 10.7924 66.4926 10.79 65.5779C10.7699 57.992 10.7546 50.4062 10.7422 42.8203C10.558 42.9524 10.3739 43.0846 10.1841 43.2207C9.93606 43.395 9.68793 43.5691 9.43972 43.7431C9.2588 43.8736 9.2588 43.8736 9.07423 44.0068C7.68718 44.9718 6.20112 45.3594 4.51174 45.1406C2.75665 44.659 1.40469 43.8855 0.456564 42.3193C-0.261951 40.7942 -0.261285 39.081 0.120031 37.4578C1.10144 35.1527 3.92791 33.7244 5.95512 32.3883C6.83727 31.8019 7.70837 31.2 8.58034 30.5991C8.85273 30.4116 8.85273 30.4116 9.13062 30.2204C10.8882 29.0103 12.6418 27.7948 14.3946 26.5781C16.5072 25.1115 18.6231 23.6498 20.7435 22.1939C22.4981 20.9887 24.2476 19.7763 25.9961 18.5625C28.1087 17.0959 30.2247 15.6341 32.345 14.1783C34.0997 12.9731 35.8492 11.7607 37.5977 10.5468C39.7097 9.0807 41.8248 7.61923 43.9447 6.16407C44.9669 5.4621 45.9875 4.7581 47.006 4.05098C47.4562 3.73845 47.9068 3.42646 48.3575 3.11459C48.9043 2.7362 49.4496 2.35589 49.994 1.97421C50.2393 1.80386 50.4846 1.63357 50.73 1.46334C50.9388 1.31733 51.1476 1.17131 51.3628 1.02087C52.5448 0.292051 53.5585 -0.0929258 54.9597 -0.105504ZM53.2141 4.48239C52.9898 4.63683 52.7655 4.79128 52.5344 4.9504C52.413 5.03606 52.2916 5.12171 52.1666 5.20996C51.7552 5.49994 51.3411 5.78578 50.9264 6.07101C50.1478 6.60731 49.3716 7.14689 48.596 7.68744C47.8445 8.211 47.0919 8.73302 46.3391 9.25485C46.1902 9.35811 46.0413 9.46136 45.8879 9.56775C44.52 10.5155 43.1481 11.4577 41.7761 12.3998C40.0214 13.605 38.272 14.8174 36.5235 16.0312C34.4108 17.4978 32.2949 18.9595 30.1746 20.4154C28.4199 21.6206 26.6704 22.833 24.9219 24.0468C22.8093 25.5134 20.6933 26.9752 18.573 28.431C16.8183 29.6362 15.0689 30.8486 13.3203 32.0625C12.7251 32.4757 12.1298 32.8887 11.5344 33.3017C11.3132 33.4554 11.3132 33.4554 11.0875 33.6122C10.2397 34.2003 9.38915 34.7844 8.53586 35.365C8.34444 35.4955 8.15302 35.6261 7.9558 35.7606C7.58614 36.0125 7.21603 36.2638 6.84538 36.5143C4.8262 37.7179 4.8262 37.7179 3.7195 39.5771C3.88875 40.3928 4.03787 40.6576 4.72658 41.1328C5.22152 41.3812 5.22152 41.3812 5.8008 41.3437C6.9326 40.7642 7.96083 40.0693 8.9966 39.3398C9.32138 39.1129 9.64616 38.8861 9.97095 38.6592C10.1352 38.5441 10.2995 38.429 10.4687 38.3105C11.2251 37.7811 11.984 37.2552 12.7429 36.7295C12.8918 36.6263 13.0406 36.5231 13.1939 36.4168C14.5619 35.4688 15.9339 34.5267 17.306 33.5846C19.0606 32.3793 20.8101 31.1669 22.5586 29.9531C24.6712 28.4865 26.7872 27.0248 28.9075 25.5689C30.6622 24.3637 32.4117 23.1513 34.1602 21.9375C36.2728 20.4709 38.3888 19.0091 40.5091 17.5533C42.2638 16.3481 44.0132 15.1357 45.7617 13.9218C46.0577 13.7164 46.3537 13.5109 46.6496 13.3055C46.7975 13.2029 46.9454 13.1002 47.0977 12.9945C47.3965 12.7874 47.6954 12.5805 47.9946 12.374C48.8488 11.7841 49.6992 11.1895 50.5462 10.5897C50.9297 10.3205 51.3133 10.0513 51.6968 9.78219C51.875 9.6547 52.0531 9.52721 52.2367 9.39585C54.044 8.13396 54.044 8.13396 55.2149 8.01559C56.4831 8.39575 57.5779 9.26296 58.6389 10.0195C58.9609 10.2458 59.2829 10.4722 59.6049 10.6985C59.8491 10.871 59.8491 10.871 60.0983 11.047C60.8662 11.588 61.6393 12.1219 62.4121 12.6562C62.7174 12.8677 63.0226 13.0791 63.3277 13.2907C63.4785 13.3952 63.6293 13.4996 63.7846 13.6073C64.2327 13.918 64.6808 14.2289 65.1287 14.5398C66.9453 15.8004 68.7656 17.0554 70.5886 18.3069C71.8808 19.1944 73.17 20.0862 74.4576 20.98C75.6321 21.7947 76.8098 22.6049 77.9883 23.414C80.0742 24.8462 82.1541 26.2868 84.2324 27.7296C86.0153 28.9671 87.8006 30.2011 89.5899 31.4297C91.3782 32.6576 93.1625 33.891 94.9445 35.1279C95.3966 35.4416 95.8489 35.7552 96.3012 36.0686C96.4524 36.1734 96.6036 36.2782 96.7594 36.3862C97.0625 36.5962 97.3656 36.8061 97.6688 37.0159C98.4579 37.5622 99.2457 38.1102 100.032 38.6609C100.194 38.7745 100.357 38.8882 100.525 39.0053C100.834 39.2211 101.142 39.4375 101.45 39.6546C103.036 40.8482 103.036 40.8482 104.884 41.3701C105.727 41.0391 105.976 40.6721 106.348 39.8672C105.85 37.656 103.097 36.4472 101.3 35.2527C100.121 34.4679 98.9589 33.6642 97.8076 32.8403C96.1212 31.6348 94.4131 30.4621 92.6989 29.2951C91.0127 28.147 89.3342 26.9886 87.6595 25.8244C86.9203 25.3105 86.1806 24.7972 85.4407 24.2841C85.2916 24.1807 85.1425 24.0774 84.9889 23.9708C83.8033 23.1494 82.6149 22.332 81.4258 21.5156C79.3399 20.0834 77.26 18.6428 75.1817 17.2C73.3988 15.9625 71.6135 14.7285 69.8242 13.5C67.7383 12.0677 65.6585 10.6272 63.5801 9.1844C61.7293 7.89976 59.8766 6.61772 58.0213 5.33932C57.8341 5.21006 57.6469 5.0808 57.4541 4.94762C57.2804 4.82808 57.1067 4.70854 56.9277 4.58538C56.7732 4.47888 56.6187 4.37237 56.4595 4.26264C55.2766 3.48011 54.3364 3.69783 53.2141 4.48239ZM75.4102 4.64059C74.64 6.90925 74.6091 10.3369 75.1953 12.6562C75.9128 13.9599 77.1766 14.5263 78.5019 15.1267C79.4601 15.5911 80.3028 16.2144 81.1707 16.8222C81.5088 17.0491 81.8476 17.2752 82.187 17.5004C82.7988 17.9083 83.4083 18.3192 84.0148 18.7347C84.1457 18.8243 84.2767 18.914 84.4115 19.0064C84.7576 19.244 85.1034 19.482 85.4491 19.7201C85.8696 20.0585 85.8696 20.0585 86.1524 20.039C86.1673 18.1321 86.1788 16.2251 86.1858 14.3181C86.1891 13.4325 86.1937 12.547 86.201 11.6615C86.208 10.8067 86.2118 9.95193 86.2135 9.09709C86.2147 8.7712 86.217 8.44532 86.2205 8.11945C86.2252 7.66244 86.2258 7.2056 86.2255 6.74857C86.227 6.48861 86.2284 6.22864 86.2299 5.96079C86.1221 5.00479 85.761 4.46723 85.0781 3.79684C84.4254 3.74943 83.7928 3.72761 83.1395 3.72598C82.9466 3.72457 82.7538 3.72317 82.5551 3.72172C82.1465 3.71958 81.738 3.7186 81.3295 3.71867C80.7046 3.71774 80.0801 3.71009 79.4553 3.70208C79.0586 3.70084 78.6619 3.70001 78.2652 3.69961C78.0784 3.69658 77.8915 3.69355 77.6989 3.69042C76.6465 3.69823 76.0486 3.72747 75.4102 4.64059ZM54.3267 12.4174C54.1756 12.5272 54.0245 12.637 53.8687 12.7501C53.6972 12.8717 53.5256 12.9932 53.3488 13.1185C53.167 13.2531 52.9852 13.3877 52.7979 13.5263C52.4096 13.8037 52.0213 14.0811 51.633 14.3585C51.4396 14.4989 51.2461 14.6393 51.0468 14.7839C50.2603 15.3522 49.4617 15.9027 48.6621 16.4531C48.3644 16.6595 48.0668 16.8661 47.7692 17.0727C46.7441 17.7832 45.7159 18.4893 44.6875 19.1953C42.7499 20.5257 40.8173 21.8629 38.8867 23.2031C36.7741 24.6697 34.6582 26.1314 32.5378 27.5873C30.7832 28.7925 29.0337 30.0049 27.2852 31.2187C25.3546 32.5589 23.422 33.8961 21.4844 35.2265C20.0863 36.1866 18.6893 37.1483 17.2949 38.1137C17.1446 38.2177 16.9942 38.3217 16.8392 38.4289C16.6994 38.5258 16.5595 38.6228 16.4154 38.7227C16.2337 38.8486 16.2337 38.8486 16.0483 38.977C15.9279 39.0619 15.8076 39.1468 15.6836 39.2343C15.463 39.366 15.463 39.366 15.2379 39.5004C14.7818 39.8333 14.7818 39.8333 14.7165 40.3503C14.7164 40.5417 14.7162 40.7331 14.7161 40.9304C14.7139 41.1514 14.7116 41.3724 14.7093 41.6002C14.7112 41.8438 14.7131 42.0875 14.7151 42.3386C14.7138 42.5968 14.7124 42.855 14.7111 43.121C14.7082 43.8391 14.7092 44.557 14.7119 45.2751C14.7138 46.049 14.7108 46.8229 14.7085 47.5968C14.7046 49.1135 14.7055 50.6301 14.708 52.1468C14.7099 53.3794 14.7102 54.612 14.7092 55.8445C14.7091 56.0198 14.709 56.195 14.7088 56.3755C14.7086 56.7315 14.7083 57.0875 14.708 57.4434C14.7056 60.784 14.7084 64.1246 14.713 67.4652C14.7168 70.3324 14.7162 73.1997 14.7122 76.0669C14.7076 79.3947 14.7058 82.7224 14.7084 86.0502C14.7087 86.405 14.709 86.7598 14.7092 87.1146C14.7094 87.2892 14.7095 87.4637 14.7096 87.6436C14.7104 88.8747 14.7091 90.1057 14.7071 91.3368C14.7047 92.8371 14.7053 94.3374 14.7099 95.8377C14.7122 96.6034 14.7131 97.3691 14.7102 98.1348C14.7072 98.9644 14.7108 99.7938 14.7151 100.623C14.7132 100.866 14.7113 101.109 14.7093 101.359C14.7115 101.581 14.7138 101.803 14.7161 102.032C14.7163 102.319 14.7163 102.319 14.7165 102.612C14.8644 103.348 15.1283 103.692 15.6836 104.203C16.3069 104.361 16.3069 104.361 17.015 104.336C17.2901 104.339 17.5652 104.341 17.8486 104.344C18.1545 104.342 18.4605 104.339 18.7664 104.337C19.0909 104.338 19.4153 104.34 19.7398 104.342C20.6328 104.346 21.5256 104.344 22.4186 104.341C23.3811 104.339 24.3436 104.342 25.3061 104.345C27.1921 104.35 29.0781 104.349 30.9642 104.346C32.4966 104.343 34.029 104.343 35.5615 104.344C35.8883 104.344 35.8883 104.344 36.2217 104.345C36.6642 104.345 37.1068 104.345 37.5494 104.346C41.702 104.349 45.8546 104.345 50.0073 104.34C53.5726 104.335 57.1379 104.336 60.7032 104.341C64.8407 104.346 68.9782 104.348 73.1157 104.345C73.5567 104.345 73.9976 104.345 74.4386 104.344C74.6555 104.344 74.8725 104.344 75.0961 104.344C76.6272 104.343 78.1583 104.344 79.6894 104.347C81.5545 104.35 83.4197 104.349 85.2849 104.343C86.237 104.341 87.1891 104.34 88.1413 104.343C89.0123 104.346 89.8831 104.344 90.754 104.339C91.0698 104.338 91.3856 104.338 91.7013 104.341C92.1292 104.344 92.5571 104.34 92.985 104.336C93.2231 104.336 93.4612 104.335 93.7065 104.335C94.3534 104.249 94.3534 104.249 94.822 103.737C95.2045 103.101 95.2856 102.769 95.2923 102.038C95.2964 101.817 95.3005 101.596 95.3048 101.369C95.3049 101.127 95.305 100.886 95.3052 100.638C95.3086 100.38 95.3121 100.123 95.3157 99.8577C95.3243 99.1438 95.3291 98.4301 95.3322 97.7162C95.3365 96.946 95.3456 96.1758 95.3539 95.4057C95.3729 93.5459 95.3836 91.6862 95.3929 89.8263C95.3966 89.1255 95.4007 88.4247 95.4048 87.7239C95.423 84.633 95.4384 81.5422 95.4467 78.4513C95.4488 77.6951 95.4509 76.939 95.4531 76.1828C95.4536 75.9949 95.4541 75.8069 95.4547 75.6133C95.4637 72.5705 95.4888 69.5281 95.5207 66.4855C95.5532 63.3593 95.571 60.2333 95.5746 57.107C95.577 55.3525 95.5858 53.5986 95.6109 51.8443C95.6324 50.3497 95.6405 48.8558 95.6315 47.3611C95.6273 46.599 95.6293 45.8382 95.6484 45.0763C95.8308 42.0731 95.8308 42.0731 94.7934 39.357C93.8907 38.4963 92.8813 37.8947 91.7582 37.3492C91.1763 37.059 90.6634 36.6989 90.1421 36.315C89.8239 36.0969 89.5056 35.8791 89.187 35.6616C88.8259 35.4141 88.4647 35.1667 88.1036 34.9192C87.8338 34.7346 87.8338 34.7346 87.5586 34.5462C86.646 33.9215 85.7345 33.2952 84.823 32.6689C84.6446 32.5463 84.4662 32.4237 84.2824 32.2975C82.3907 30.997 80.5048 29.6887 78.6192 28.3797C76.8363 27.1422 75.051 25.9082 73.2617 24.6797C71.1758 23.2474 69.096 21.8069 67.0176 20.3641C65.0547 19.0016 63.089 17.6431 61.1177 16.2923C60.2301 15.6836 59.3451 15.0719 58.4652 14.4525C58.2997 14.3364 58.1343 14.2203 57.9638 14.1006C57.6531 13.8824 57.3431 13.6633 57.0339 13.4431C56.8947 13.3455 56.7556 13.2479 56.6122 13.1473C56.4921 13.0623 56.3721 12.9772 56.2484 12.8896C55.3383 12.3019 55.3383 12.3019 54.3267 12.4174Z" fill="white"/>
<path d="M37.7186 34.0797C37.9613 34.0813 38.204 34.0829 38.454 34.0845C44.0384 34.1909 49.3567 36.2095 53.6003 39.7715C54.2912 40.3412 54.4902 40.5001 55.4297 40.5001C55.9003 40.1661 56.3326 39.8278 56.7725 39.4586C61.9902 35.2771 68.3123 33.6757 74.9805 34.172C78.2059 34.549 81.4232 36.2489 83.7891 38.3907C83.9805 38.5593 84.1719 38.7279 84.369 38.9016C89.2189 43.391 91.5781 50.024 91.7996 56.4663C91.9408 63.6784 90.2886 70.4319 86.7969 76.7814C86.6936 76.9717 86.6936 76.9717 86.5881 77.1658C80.4706 88.3517 69.6455 95.7411 57.793 100.195C57.6221 100.261 57.4511 100.326 57.275 100.394C55.3492 101.086 53.9339 100.862 52.0594 100.169C51.7579 100.059 51.7579 100.059 51.4503 99.9468C47.2238 98.3538 43.0758 96.3456 39.3165 93.8673C39.1825 93.7793 39.0485 93.6914 38.9105 93.6007C37.005 92.3364 35.2387 90.931 33.5157 89.4376C33.3521 89.2969 33.3521 89.2969 33.1851 89.1534C28.3519 84.9812 24.6393 79.9661 21.9141 74.2501C21.802 74.0198 21.6898 73.7895 21.5742 73.5522C18.3735 66.6453 17.1481 58.4868 18.9063 51.047C18.9409 50.8984 18.9755 50.7498 19.0111 50.5967C20.3837 44.9472 23.6511 39.5743 28.7536 36.4717C31.558 34.8476 34.4678 34.0493 37.7186 34.0797ZM33.3008 38.6017C33.0635 38.6971 32.8262 38.7925 32.5816 38.8909C30.6311 39.7599 29.2036 40.8998 27.7149 42.3985C27.5717 42.5372 27.4285 42.6759 27.281 42.8188C23.0928 47.1444 21.9525 53.6375 22.0643 59.3658C22.262 64.7896 23.9458 70.1585 26.6407 74.8829C26.7722 75.1274 26.9038 75.3718 27.0393 75.6237C29.6287 80.3047 33.3771 84.4408 37.5977 87.7501C37.7678 87.8891 37.9378 88.028 38.113 88.1712C41.9666 91.2948 46.3858 93.5424 50.918 95.5548C51.1871 95.6769 51.1871 95.6769 51.4615 95.8015C51.9711 96.0301 52.484 96.2487 52.9993 96.4645C53.1483 96.5321 53.2973 96.5997 53.4507 96.6693C54.7545 97.191 55.6597 96.8943 56.9337 96.3985C57.1032 96.3353 57.2727 96.2721 57.4473 96.2069C62.8114 94.1379 68.0029 91.4322 72.4024 87.7501C72.6455 87.5504 72.8886 87.3507 73.1317 87.1511C75.4083 85.2707 77.4455 83.3113 79.2774 81.0001C79.3677 80.8877 79.4579 80.7752 79.5509 80.6594C85.4548 73.2574 88.8194 63.893 87.7704 54.4451C87.1805 50.1191 85.5035 45.8666 82.5001 42.6095C82.35 42.445 82.1999 42.2805 82.0452 42.111C79.8075 39.7849 76.7357 38.062 73.4271 37.9186C67.4363 37.7854 62.138 39.7309 57.7527 43.7565C57.5299 43.9667 57.3075 44.1773 57.0856 44.3884C55.8807 45.5099 55.8807 45.5099 55.0538 45.6944C53.8126 45.4601 53.0595 44.4972 52.1853 43.6469C48.1101 39.8314 42.7996 37.8412 37.1971 37.8952C35.8154 37.9337 34.5875 38.078 33.3008 38.6017Z" fill="white"/>
<path d="M60.1252 64.3838C62.7698 66.5309 64.2789 69.2895 65.9503 72.1742C66.5098 73.1303 67.0934 74.029 67.7698 74.9092C69.5062 77.1788 70.0236 79.62 69.7244 82.4395C69.4273 84.1707 68.8513 85.7471 67.461 86.9063C65.4532 88.2777 63.4996 88.5966 61.0909 88.2693C59.8726 88.0342 58.6952 87.6188 57.5277 87.21C55.3432 86.46 54.0299 86.6649 51.8714 87.4204C49.2159 88.2945 46.508 88.9463 43.8282 87.75C42.2024 86.8048 41.2354 85.6252 40.5518 83.9136C39.8844 80.5826 40.2341 77.7821 42.1094 74.8828C42.3803 74.5163 42.6538 74.1518 42.9293 73.7886C43.8281 72.5943 44.559 71.341 45.2918 70.0445C46.9889 67.1137 49.0298 64.2158 52.4572 63.1346C55.0851 62.4873 57.9102 62.7772 60.1252 64.3838ZM51.3594 68.3001C49.8664 69.8747 48.8491 71.7319 47.7784 73.5946C47.0129 74.9078 46.1915 76.141 45.2665 77.3518C44.0919 78.9136 44.0473 80.5981 44.2578 82.4766C44.5859 83.2969 44.8534 83.8541 45.6678 84.2564C47.5313 85.0391 49.3384 84.2297 51.1189 83.5676C54.1891 82.4294 57.0692 82.8419 60.0757 83.9795C61.5118 84.5029 62.8727 84.8814 64.3323 84.2564C65.1465 83.8542 65.4116 83.2953 65.7422 82.4766C66.1309 79.6144 65.2165 77.9126 63.548 75.6404C62.8939 74.7338 62.3428 73.7895 61.7984 72.816C59.8105 69.2148 59.8105 69.2148 56.5039 66.8672C54.374 66.3493 52.9565 66.9172 51.3594 68.3001Z" fill="white"/>
<path d="M49.3981 46.037C51.4362 47.5988 52.909 50.2346 53.2813 52.7343C53.4649 55.5714 53.2835 58.4621 51.3477 60.7499C49.9046 62.2294 48.4579 62.9618 46.366 63.1229C43.9612 62.9681 42.4009 61.9588 40.78 60.2753C38.8716 58.0635 38.1299 55.3999 38.2422 52.5101C38.5313 49.8934 39.3953 47.7148 41.4648 45.9843C43.8989 44.4065 46.9773 44.4942 49.3981 46.037ZM43.0627 49.95C42.0285 51.5036 42.0169 53.2946 42.367 55.0579C42.6003 55.9115 42.9125 56.6327 43.3984 57.3749C43.5845 57.662 43.5845 57.662 43.7744 57.955C44.5922 58.7578 45.467 59.2529 46.6345 59.2997C47.6738 58.9089 48.4561 58.3451 49.0079 57.3798C49.765 55.4514 49.6025 53.4537 48.8115 51.5692C48.1264 50.1756 47.4375 49.3555 45.9766 48.7264C44.7179 48.5247 43.8852 49.0194 43.0627 49.95Z" fill="white"/>
<path d="M67.304 45.3722C69.5041 46.4985 70.7241 48.1588 71.475 50.438C72.2873 53.4465 71.6435 56.416 70.1801 59.1136C69.0392 60.9788 67.4408 62.3443 65.2723 62.9385C63.3225 63.2523 61.554 63.0072 59.9012 61.897C58.036 60.3994 57.1153 58.3942 56.7188 56.1094C56.447 52.7238 57.2711 49.8777 59.4379 47.2385C61.3927 45.1291 64.5837 44.1772 67.304 45.3722ZM62.0496 50.2691C60.8603 51.6965 60.5015 53.2884 60.5264 55.105C60.6596 56.4068 61.0543 57.7627 62.063 58.667C62.7915 59.0962 63.1738 59.2901 64.0235 59.2735C65.467 58.8636 66.2768 57.9784 67.0313 56.7422C67.8824 55.1558 68.1854 53.4607 67.7362 51.711C67.3516 50.581 66.9996 49.6199 65.9571 48.9375C64.2061 48.4059 63.2464 48.9932 62.0496 50.2691Z" fill="white"/>
<path d="M78.6731 62.4376C79.9833 63.5874 80.6656 65.4948 80.8325 67.1705C80.8988 69.4202 80.342 71.4844 78.8301 73.2094C77.2935 74.7303 75.8025 75.5253 73.6109 75.6212C71.6834 75.5665 70.4055 74.9131 69.0857 73.5514C67.7242 71.91 67.4188 70.2389 67.461 68.1329C67.7992 65.8684 68.5943 63.8675 70.4688 62.4376C73.2983 60.781 75.8701 60.7108 78.6731 62.4376ZM72.2983 66.1554C71.5032 67.2079 71.4285 68.1464 71.4423 69.434C71.587 70.2922 71.9558 70.8586 72.5769 71.4684C73.2233 71.8128 73.6083 71.8189 74.336 71.7188C75.4868 71.1087 76.2304 70.3939 76.753 69.214C77.0839 67.8602 76.9395 66.9629 76.3056 65.7491C76.043 65.3265 76.043 65.3265 75.4102 64.9688C74.0162 64.8139 73.2418 65.1412 72.2983 66.1554Z" fill="white"/>
<path d="M38.8867 62.0156C40.272 62.992 41.3027 64.0215 41.8945 65.6015C42.0208 65.8887 42.0208 65.8887 42.1497 66.1816C42.7199 68.4213 42.6936 70.7225 41.5479 72.7841C40.5928 74.1023 39.2449 75.2228 37.5976 75.5156C35.6132 75.7291 33.9778 75.4564 32.3457 74.2994C30.3978 72.6962 29.4164 70.8796 29.1575 68.3866C29.0852 66.2012 29.7079 64.325 31.1523 62.6484C33.307 60.6949 36.3723 60.6713 38.8867 62.0156ZM33.5156 66.0234C33.0371 66.8735 32.988 67.5929 33.0859 68.5547C33.4995 69.8975 34.0657 70.7096 35.2344 71.5078C35.8581 71.814 36.2597 71.7973 36.9531 71.7187C37.6905 71.2857 38.1798 70.8478 38.457 70.0312C38.6114 68.5695 38.6155 67.3649 37.7017 66.1552C36.9774 65.3767 36.3907 65.0148 35.3284 64.8501C34.3843 65.0017 34.0968 65.2898 33.5156 66.0234Z" fill="white"/>
</g>
<defs>
<clipPath id="clip0_141_1136">
<rect width="110" height="108" fill="white"/>
</clipPath>
</defs>
</svg>
