<svg width="110" height="108" viewBox="0 0 110 108" fill="none" xmlns="http://www.w3.org/2000/svg">
<g clip-path="url(#clip0_114_1063)">
<path d="M81.1625 60.8551C81.5619 60.8528 81.5619 60.8528 81.9694 60.8505C82.697 60.8473 83.4246 60.848 84.1523 60.8508C84.9153 60.853 85.6783 60.851 86.4413 60.8496C87.7224 60.848 89.0035 60.8501 90.2847 60.8542C91.7639 60.859 93.243 60.8574 94.7223 60.8527C95.9944 60.8487 97.2665 60.8481 98.5386 60.8504C99.2975 60.8518 100.056 60.852 100.815 60.8491C101.661 60.8469 102.508 60.8502 103.354 60.8551C103.604 60.8533 103.854 60.8516 104.112 60.8497C105.48 60.8643 106.302 60.9331 107.339 61.8388C108.147 62.7429 108.315 63.3925 108.3 64.5506C108.286 66.1238 108.365 67.4688 109.004 68.923C110.465 72.3204 110.216 75.9725 110.187 79.5865C110.18 80.5541 110.182 81.5216 110.183 82.4892C110.182 84.1087 110.176 85.728 110.166 87.3475C110.154 89.2186 110.151 91.0895 110.153 92.9607C110.154 94.7684 110.151 96.5761 110.145 98.3839C110.142 99.1507 110.141 99.9176 110.141 100.684C110.141 101.584 110.137 102.484 110.129 103.384C110.127 103.714 110.126 104.044 110.127 104.374C110.128 104.824 110.123 105.274 110.117 105.724C110.115 106.102 110.115 106.102 110.114 106.487C110 107.129 110 107.129 109.635 107.645C108.96 108.104 108.551 108.11 107.732 108.111C107.449 108.113 107.165 108.116 106.873 108.118C106.559 108.116 106.246 108.115 105.932 108.113C105.601 108.114 105.27 108.115 104.939 108.117C104.041 108.121 103.143 108.12 102.245 108.117C101.306 108.115 100.366 108.117 99.4263 108.118C97.8484 108.12 96.2704 108.118 94.6924 108.114C92.8678 108.109 91.0432 108.11 89.2185 108.115C87.6522 108.119 86.086 108.12 84.5197 108.117C83.584 108.116 82.6485 108.116 81.7128 108.119C80.8332 108.121 79.9537 108.12 79.0741 108.114C78.7512 108.113 78.4283 108.114 78.1054 108.116C77.6648 108.118 77.2243 108.114 76.7837 108.111C76.5371 108.11 76.2905 108.11 76.0364 108.11C75.4033 108 75.4033 108 74.8808 107.645C74.4031 106.969 74.4029 106.545 74.399 105.724C74.3972 105.584 74.3953 105.443 74.3934 105.298C74.3883 104.827 74.3896 104.356 74.3908 103.885C74.3885 103.547 74.3859 103.209 74.3829 102.87C74.376 101.951 74.3748 101.032 74.3751 100.112C74.3749 99.3422 74.3722 98.572 74.3696 97.8018C74.3635 95.9801 74.3623 94.1585 74.364 92.3368C74.3656 90.4679 74.3582 88.5992 74.3464 86.7304C74.3367 85.1198 74.333 83.5093 74.334 81.8988C74.3345 80.9397 74.3328 79.9808 74.3249 79.0218C74.2697 71.7527 74.2697 71.7527 75.7205 68.4487C76.3101 67.049 76.229 65.555 76.2098 64.0647C76.2432 63.1072 76.5242 62.5695 77.1775 61.8388C78.4051 60.766 79.5701 60.8439 81.1625 60.8551ZM79.8387 64.4517C79.8387 65.0265 79.8387 65.6013 79.8387 66.1936C88.0355 66.1936 96.2323 66.1936 104.677 66.1936C104.677 65.6188 104.677 65.0439 104.677 64.4517C96.4807 64.4517 88.2839 64.4517 79.8387 64.4517ZM79.3952 69.6775C79.2488 70.2523 79.1025 70.8271 78.9516 71.4194C87.7339 71.4194 96.5162 71.4194 105.565 71.4194C105.345 70.5571 105.345 70.5571 105.121 69.6775C96.6315 69.6775 88.142 69.6775 79.3952 69.6775ZM78.0646 74.9033C78.0646 84.6755 78.0646 94.4478 78.0646 104.516C87.4323 104.516 96.8 104.516 106.452 104.516C106.452 94.7439 106.452 84.9717 106.452 74.9033C97.0839 74.9033 87.7162 74.9033 78.0646 74.9033Z" fill="white"/>
<path d="M6.64634 62.597C7.04576 62.5947 7.04576 62.5947 7.45325 62.5924C8.18092 62.5892 8.90845 62.59 9.63613 62.5927C10.3991 62.595 11.1622 62.5929 11.9252 62.5915C13.2063 62.59 14.4874 62.592 15.7685 62.5962C17.2478 62.6009 18.7269 62.5994 20.2062 62.5946C21.4783 62.5906 22.7504 62.5901 24.0225 62.5924C24.7814 62.5937 25.5402 62.5939 26.2991 62.591C27.1453 62.5888 27.9914 62.5922 28.8376 62.597C29.0879 62.5953 29.3382 62.5935 29.596 62.5917C30.9638 62.6062 31.7862 62.675 32.8226 63.5807C33.631 64.4849 33.799 65.1345 33.784 66.2926C33.7702 67.8715 33.854 69.2224 34.4878 70.6844C35.8971 73.9899 35.7009 77.464 35.6705 80.9767C35.664 81.8954 35.6658 82.8142 35.6664 83.7329C35.6662 85.2704 35.66 86.8077 35.6498 88.3452C35.638 90.1213 35.635 91.8973 35.6367 93.6734C35.6382 95.39 35.6347 97.1066 35.6285 98.8232C35.6259 99.5511 35.6249 100.279 35.6252 101.007C35.6251 101.861 35.6206 102.715 35.6127 103.57C35.6104 103.883 35.6097 104.196 35.6106 104.509C35.6115 104.936 35.6064 105.363 35.601 105.79C35.5992 106.149 35.5992 106.149 35.5974 106.514C35.4535 107.294 35.2558 107.548 34.5968 108C33.9637 108.11 33.9637 108.11 33.2164 108.111C32.9328 108.113 32.6492 108.116 32.357 108.118C32.0433 108.116 31.7295 108.115 31.4157 108.113C31.0849 108.114 30.7541 108.115 30.4233 108.117C29.5252 108.121 28.6272 108.12 27.7291 108.117C26.7895 108.115 25.8499 108.117 24.9102 108.118C23.3322 108.12 21.7543 108.118 20.1763 108.114C18.3516 108.109 16.527 108.11 14.7024 108.115C13.1361 108.119 11.5698 108.12 10.0035 108.117C9.06792 108.116 8.13233 108.116 7.19671 108.119C6.3171 108.121 5.4376 108.12 4.55801 108.115C4.23509 108.113 3.91216 108.114 3.58925 108.116C3.1487 108.118 2.70813 108.114 2.2676 108.111C2.02098 108.11 1.77436 108.11 1.52027 108.11C0.887138 108 0.887138 108 0.364631 107.641C-0.103422 106.984 -0.113073 106.59 -0.117083 105.79C-0.120546 105.515 -0.124009 105.241 -0.127577 104.957C-0.126913 104.653 -0.126152 104.349 -0.125303 104.045C-0.127595 103.724 -0.130254 103.403 -0.133252 103.082C-0.140147 102.209 -0.141307 101.337 -0.141029 100.464C-0.141214 99.7329 -0.143931 99.0017 -0.146562 98.2704C-0.15264 96.5406 -0.153814 94.8109 -0.152158 93.0811C-0.150562 91.3072 -0.157912 89.5334 -0.169691 87.7596C-0.179473 86.2304 -0.183101 84.7013 -0.182102 83.1721C-0.181592 82.2617 -0.183337 81.3515 -0.191211 80.4411C-0.24642 73.5503 -0.24642 73.5503 1.20441 70.204C1.78824 68.796 1.713 67.3033 1.69367 65.8066C1.72712 64.8491 2.00804 64.3115 2.66133 63.5807C3.88899 62.5079 5.05396 62.5858 6.64634 62.597ZM5.32262 66.1936C5.32262 66.7684 5.32262 67.3433 5.32262 67.9355C13.5194 67.9355 21.7162 67.9355 30.1613 67.9355C30.1613 67.3607 30.1613 66.7859 30.1613 66.1936C21.9646 66.1936 13.7678 66.1936 5.32262 66.1936ZM4.87907 71.4194C4.7327 71.9942 4.58633 72.5691 4.43553 73.1613C13.2178 73.1613 22 73.1613 31.0484 73.1613C30.8289 72.2991 30.8289 72.2991 30.6049 71.4194C22.1154 71.4194 13.6258 71.4194 4.87907 71.4194ZM3.54843 76.6452C3.54843 85.8426 3.54843 95.0401 3.54843 104.516C12.9162 104.516 22.2839 104.516 31.9355 104.516C31.9355 95.3188 31.9355 86.1213 31.9355 76.6452C22.5678 76.6452 13.2 76.6452 3.54843 76.6452Z" fill="white"/>
<path d="M76.887 21.462C77.8684 21.4756 78.8482 21.4675 79.8296 21.4537C84.8728 21.3939 90.8026 21.6278 95.0692 24.6828C96.1315 25.8684 96.3615 27.3267 96.6061 28.8483C96.6346 29.019 96.6632 29.1897 96.6927 29.3655C96.7523 29.7242 96.8109 30.083 96.8687 30.442C96.9564 30.9842 97.0481 31.5257 97.1401 32.0672C97.9463 36.9044 97.9463 36.9044 97.1744 38.0598C96.1818 38.7387 95.1575 39.3364 94.1016 39.9149C93.8882 40.0346 93.6747 40.1543 93.4549 40.2776C91.8761 41.1533 91.8761 41.1533 91.371 41.1533C91.2544 43.7835 91.1786 46.131 92.7293 48.366C93.9447 50.1206 94.49 51.8717 94.9471 53.9184C95.041 54.3369 95.041 54.3369 95.1369 54.7639C95.4373 56.1756 95.6763 57.5717 95.8065 59.0081C95.3868 59.1244 94.9662 59.2371 94.5451 59.3483C94.311 59.4115 94.0768 59.4746 93.8356 59.5397C93.1346 59.6632 92.719 59.5991 92.0363 59.4436C91.9762 59.1574 91.9762 59.1574 91.9149 58.8654C91.7616 58.144 91.6049 57.4235 91.4461 56.7032C91.3786 56.394 91.3124 56.0844 91.2475 55.7746C90.7796 53.5453 90.2025 51.4457 88.7773 49.5917C87.5104 47.8936 87.6277 46.1021 87.6613 44.0776C87.6702 43.4777 87.6659 42.8789 87.6602 42.279C87.6618 41.8955 87.6643 41.5121 87.6675 41.1286C87.666 40.9505 87.6644 40.7725 87.6628 40.589C87.6856 39.6844 87.7364 39.3022 88.3193 38.5677C88.8711 38.1505 89.3969 37.797 90.01 37.4746C90.3048 37.3178 90.3048 37.3178 90.6056 37.1578C90.8079 37.0527 91.0101 36.9476 91.2185 36.8393C91.4251 36.7299 91.6316 36.6206 91.8444 36.508C92.351 36.2401 92.8585 35.9741 93.3669 35.7097C93.2765 33.8059 93.0574 31.9686 92.7052 30.0962C92.5395 29.1956 92.4457 28.3557 92.4798 27.4355C92.0508 27.3517 92.0508 27.3517 91.6131 27.2662C90.8742 27.1059 90.1867 26.9043 89.4829 26.6322C86.0748 25.342 82.7594 25.2177 79.1591 25.2413C78.5061 25.2453 77.8541 25.2408 77.2012 25.2279C72.3508 25.1324 68.3737 25.8478 63.871 27.6533C63.8346 27.8615 63.7982 28.0697 63.7607 28.2842C63.6877 28.7015 63.6877 28.7015 63.6132 29.1272C63.5878 29.2727 63.5624 29.4182 63.5362 29.5681C63.4309 30.1709 63.3255 30.7737 63.2188 31.3764C63.1462 31.7866 63.0754 32.1972 63.0047 32.6078C62.9582 32.8734 62.9118 33.1391 62.8639 33.4129C62.7618 34.1878 62.7443 34.9293 62.7621 35.7097C62.9904 35.8332 62.9904 35.8332 63.2233 35.9592C63.9114 36.3326 64.5981 36.7084 65.2848 37.0842C65.5244 37.2138 65.7639 37.3433 66.0107 37.4767C66.2395 37.6024 66.4682 37.728 66.7038 37.8574C67.0209 38.0301 67.0209 38.0301 67.3443 38.2064C67.8629 38.5404 67.8629 38.5404 68.3065 39.1936C68.4597 40.2962 68.4936 41.3977 68.5227 42.5095C68.5352 42.8713 68.5543 43.2328 68.5818 43.5938C68.7454 45.7836 68.488 47.6455 67.5604 49.6427C67.488 49.7989 67.4156 49.9551 67.341 50.116C67.2664 50.2767 67.1918 50.4375 67.1149 50.6031C64.5899 56.054 64.5344 61.123 64.6486 67.0412C64.6697 68.3262 64.6711 69.6112 64.6745 70.8963C64.6838 73.3936 64.7138 75.8902 64.7581 78.3871C63.5871 78.3871 62.4161 78.3871 61.2097 78.3871C61.1315 75.4641 61.073 72.5413 61.0373 69.6175C61.0202 68.2587 60.9971 66.9007 60.9587 65.5424C60.7793 59.0224 61.0522 53.7648 64.0002 47.86C64.9995 45.7579 64.9586 43.4316 64.7581 41.1533C64.598 41.0936 64.438 41.0339 64.2731 40.9725C63.2266 40.5453 62.2624 39.9754 61.279 39.4249C61.0656 39.3078 60.8522 39.1906 60.6323 39.0698C60.4286 38.956 60.2249 38.8422 60.015 38.7249C59.8293 38.6217 59.6436 38.5184 59.4522 38.412C58.9919 38.1049 58.9919 38.1049 58.5484 37.4517C58.2633 35.5084 58.7546 33.4451 59.0804 31.5294C59.1723 30.9867 59.2601 30.4434 59.3476 29.9C59.4058 29.5494 59.4643 29.1988 59.523 28.8483C59.5487 28.6886 59.5743 28.5289 59.6008 28.3643C60.1225 25.354 60.1225 25.354 61.4145 24.4289C66.2168 21.7231 71.4904 21.3862 76.887 21.462Z" fill="white"/>
<path d="M51.6853 83.5127C52.0054 83.5069 52.3254 83.4981 52.6452 83.4859C54.8921 83.4012 56.3404 83.7105 58.3007 84.7947C59.2569 85.2682 60.0222 85.2999 61.0711 85.2459C63.1286 85.2598 63.1286 85.2598 63.968 85.9808C64.2347 86.2773 64.4977 86.577 64.7581 86.879C64.9556 87.0476 65.1532 87.2163 65.3567 87.3901C67.4534 89.2123 68.3641 91.3487 68.75 94.0644C68.9513 94.0465 69.1526 94.0285 69.3599 94.01C70.0807 94.0644 70.0807 94.0644 70.5466 94.4194C71.0539 95.041 71.1713 95.4988 71.3299 96.2776C71.3851 96.54 71.4402 96.8025 71.4971 97.0729C71.5511 97.3465 71.6052 97.6202 71.6608 97.9021C71.7166 98.1708 71.7723 98.4394 71.8298 98.7161C71.9388 99.2436 72.0462 99.7714 72.1517 100.3C72.2817 100.948 72.4177 101.596 72.5549 102.243C72.6998 102.958 72.8128 103.649 72.8251 104.38C72.8314 104.552 72.8377 104.725 72.8442 104.902C72.6993 105.59 72.4087 105.822 71.8549 106.258C71.2217 106.368 71.2217 106.368 70.4744 106.369C70.1908 106.371 69.9073 106.373 69.6151 106.376C69.3013 106.374 68.9876 106.373 68.6738 106.371C68.343 106.372 68.0122 106.373 67.6814 106.375C66.7833 106.379 65.8853 106.378 64.9872 106.375C64.0475 106.373 63.1079 106.375 62.1683 106.376C60.5903 106.378 59.0123 106.376 57.4344 106.372C55.6097 106.367 53.7851 106.368 51.9604 106.373C50.3942 106.377 48.8279 106.378 47.2616 106.375C46.326 106.374 45.3904 106.374 44.4548 106.377C43.5752 106.379 42.6957 106.377 41.8161 106.372C41.4931 106.371 41.1702 106.372 40.8473 106.374C40.4068 106.376 39.9662 106.372 39.5257 106.369C39.1557 106.368 39.1557 106.368 38.7783 106.368C38.0008 106.233 37.7397 105.989 37.2581 105.387C36.8105 103.693 37.5327 101.54 37.8848 99.8611C37.993 99.3433 38.0968 98.8248 38.2002 98.3062C38.2685 97.973 38.3371 97.6398 38.406 97.3068C38.4365 97.1536 38.467 97.0005 38.4985 96.8427C38.6984 95.9054 38.9807 95.1088 39.4758 94.2822C40.0766 93.9873 40.5868 94.0503 41.25 94.0644C41.3004 93.7995 41.3507 93.5345 41.4025 93.2615C41.4968 92.8753 41.5942 92.4898 41.6936 92.1048C41.7462 91.874 41.7988 91.6433 41.853 91.4056C42.2733 89.9778 42.7386 89.1854 44.0476 88.4564C45.8939 87.5322 45.8939 87.5322 46.5726 87.5322C46.6184 87.366 46.6641 87.1999 46.7112 87.0287C47.8332 84.0744 48.5855 83.5548 51.6853 83.5127ZM50.7863 87.0967C50.7129 87.2965 50.6394 87.4964 50.5637 87.7023C49.8702 89.3865 49.2432 90.3279 47.5152 91.0705C47.3683 91.1234 47.2215 91.1763 47.0703 91.2308C46.5716 91.4135 46.5716 91.4135 45.9073 91.887C45.6877 92.6056 45.4682 93.3241 45.242 94.0644C51.6823 94.0644 58.1226 94.0644 64.7581 94.0644C64.1747 91.7923 64.1747 91.7923 62.8314 90.1179C62.7059 89.9952 62.5804 89.8725 62.4511 89.7461C61.3414 88.7654 60.4509 88.6182 58.9948 88.6617C57.8143 88.6862 57.1353 88.4255 56.1228 87.8452C54.3503 86.8594 52.7583 86.949 50.7863 87.0967ZM42.3589 97.5483C41.993 99.2728 41.6271 100.997 41.25 102.774C50.325 102.774 59.4 102.774 68.75 102.774C68.3841 101.05 68.0182 99.3251 67.6412 97.5483C59.298 97.5483 50.9549 97.5483 42.3589 97.5483Z" fill="white"/>
<path d="M23.4694 30.3512C24.0767 30.5183 24.3835 30.7841 24.8509 31.1984C28.3662 34.3069 32.2625 34.2762 36.8046 34.1206C40.2205 33.9349 42.2536 33.0501 44.7995 30.7935C45.2954 30.4465 45.5926 30.3578 46.1967 30.3274C47.1223 30.5042 47.3482 30.6266 47.9033 31.3549C48.0129 32.0664 48.0129 32.0664 48.011 32.9217C48.0119 33.078 48.0127 33.2343 48.0136 33.3953C48.0152 33.9114 48.0105 34.4272 48.0055 34.9434C48.005 35.3035 48.0048 35.6637 48.0049 36.0239C48.0042 36.7794 48.0005 37.5347 47.9946 38.2901C47.9871 39.2541 47.9853 40.2179 47.9857 41.1819C47.9856 41.9264 47.9831 42.6708 47.9799 43.4152C47.9785 43.7703 47.9776 44.1254 47.9773 44.4806C47.9687 48.8721 47.9687 48.8721 46.875 50.8385C46.7653 51.0424 46.6557 51.2463 46.5428 51.4564C46.3115 51.876 46.0793 52.295 45.8462 52.7136C45.7375 52.9166 45.6287 53.1197 45.5166 53.3289C45.4161 53.5103 45.3155 53.6917 45.2119 53.8786C44.952 54.6336 45.0003 54.9743 45.242 55.742C45.434 56.0589 45.6344 56.371 45.84 56.6797C48.5457 60.8374 48.2228 65.0353 48.086 69.8053C48.0584 70.8739 48.0466 71.9427 48.0332 73.0116C48.005 75.0943 47.9584 77.1759 47.9033 79.2581C46.7323 79.2581 45.5613 79.2581 44.3549 79.2581C44.3656 78.7778 44.3763 78.2975 44.3873 77.8027C44.4208 76.1863 44.435 74.57 44.4405 72.9533C44.4444 71.9762 44.4541 71.0001 44.4788 70.0233C44.6003 65.0253 44.1712 61.3566 41.523 57.0281C40.8551 55.9149 40.5746 55.2793 40.8065 54C41.0676 53.2929 41.0676 53.2929 41.4294 52.6145C41.5585 52.3676 41.6875 52.1207 41.8205 51.8664C42.0253 51.4877 42.0253 51.4877 42.2342 51.1013C42.3715 50.8422 42.5086 50.583 42.6452 50.3235C42.8949 49.8497 43.1463 49.3768 43.3997 48.9049C44.6833 46.3975 44.1607 42.7152 44.147 39.9693C44.1459 39.575 44.1449 39.1808 44.144 38.7866C44.1415 37.8335 44.1377 36.8805 44.1331 35.9274C43.9948 36.0351 43.8565 36.1428 43.714 36.2537C41.9552 37.5002 40.571 37.6768 38.4363 37.6541C38.1274 37.6551 37.8185 37.6566 37.5096 37.6585C36.8661 37.6607 36.2229 37.6575 35.5794 37.6503C34.7613 37.6417 33.944 37.6467 33.1258 37.6558C32.4891 37.6613 31.8526 37.6595 31.2159 37.6556C30.7699 37.6541 30.3239 37.6587 29.8779 37.6634C27.872 37.6285 26.6328 37.1515 25.0605 35.9274C25.0652 36.0773 25.0698 36.2271 25.0745 36.3815C25.1156 37.8187 25.1396 39.2552 25.1462 40.693C25.1501 41.432 25.1616 42.1689 25.1845 42.9077C25.3148 47.3026 24.5531 49.7723 21.8721 53.2676C21.1166 54.3478 20.8588 55.5052 20.6528 56.7898C20.561 57.2494 20.4692 57.709 20.3773 58.1686C20.3439 58.3625 20.3105 58.5564 20.276 58.7562C20.1815 59.2258 20.1815 59.2258 19.9597 59.6613C18.9986 59.5584 18.0673 59.4284 17.1243 59.2173C16.9482 59.1781 16.7721 59.1389 16.5906 59.0986C16.4583 59.0687 16.3259 59.0389 16.1896 59.0081C16.3596 58.171 16.533 57.3347 16.7094 56.499C16.7977 56.0769 16.8835 55.6542 16.9693 55.2316C17.0264 54.9622 17.0836 54.6927 17.1425 54.4151C17.1936 54.1688 17.2447 53.9225 17.2974 53.6687C17.6656 52.4174 18.1676 51.3913 19.0683 50.428C21.8556 47.3372 21.394 43.5363 21.3024 39.6633C21.2706 38.2068 21.262 36.7501 21.2539 35.2934C21.2489 34.7875 21.2371 34.2822 21.2243 33.7765C21.2199 33.4679 21.2157 33.1593 21.2115 32.8507C21.2055 32.582 21.1994 32.3134 21.1932 32.0367C21.2904 31.3549 21.2904 31.3549 21.6876 30.8357C22.2744 30.4143 22.7435 30.3146 23.4694 30.3512Z" fill="white"/>
<path d="M99.9214 79.8195C100.413 80.2945 100.747 80.8733 101.129 81.4355C101.381 81.6216 101.64 81.7982 101.905 81.9663C102.903 82.6282 103.386 83.3738 103.694 84.5128C103.932 85.9263 103.644 87.1406 102.88 88.3582C102.264 89.1508 101.631 89.5883 100.686 89.9274C100.369 89.9484 100.052 89.9644 99.7351 89.9765C98.57 90.0958 98.0077 90.5564 97.2082 91.3606C97.0796 91.4846 96.9511 91.6086 96.8187 91.7363C96.5494 91.9987 96.2822 92.2633 96.0172 92.5299C95.6152 92.9323 95.2041 93.3238 94.7912 93.7154C93.2047 95.2598 92.3673 96.4124 92.0363 98.6371C91.4487 99.8123 90.6264 100.58 89.375 101.032C87.9065 101.219 86.3819 101.292 85.1613 100.379C83.6089 98.8517 83.6089 98.8517 83.6089 98.2016C83.3756 98.141 83.3756 98.141 83.1376 98.0792C82.1283 97.5837 81.4621 96.8369 80.971 95.8388C80.5635 94.5844 80.7436 93.3352 81.1694 92.1049C81.8131 91.0301 82.634 90.3567 83.8307 89.9274C83.9794 89.9188 84.1282 89.9101 84.2814 89.9012C86.2153 89.7512 87.358 88.4854 88.6427 87.1958C89.0264 86.8131 89.4195 86.4419 89.8147 86.0706C91.2411 84.6884 92.1074 83.6276 92.3714 81.6022C92.5432 80.6483 93.0579 80.0727 93.8105 79.4758C95.7906 78.2608 98.0872 78.3955 99.9214 79.8195ZM96.4718 82.3065C96.114 82.5678 96.114 82.5678 95.8065 82.9597C95.7949 83.4908 95.8629 83.9876 95.9347 84.5137C95.7206 85.5547 94.9962 86.1347 94.2541 86.8791C94.1402 86.9937 94.0264 87.1083 93.9091 87.2264C93.0834 88.0558 92.2501 88.8776 91.4135 89.6964C90.9655 90.1351 90.5187 90.5749 90.072 91.0149C89.7875 91.2941 89.5029 91.5732 89.2182 91.8523C89.0847 91.9838 88.9512 92.1153 88.8136 92.2508C87.8736 93.1685 87.8736 93.1685 87.3791 93.4113C86.8165 93.4094 86.2576 93.3828 85.6958 93.3552C85.1435 93.3642 85.1435 93.3642 84.7585 93.7396C84.6719 93.8469 84.5852 93.9541 84.496 94.0645C84.6109 94.4924 84.6109 94.4924 84.9395 94.9355C85.3273 95.0765 85.7151 95.2175 86.103 95.3582C86.8344 95.7917 87.084 96.5733 87.3791 97.3307C87.9279 97.2229 87.9279 97.2229 88.4879 97.1129C88.7648 96.4463 88.7648 96.4463 88.6265 95.6568C88.6277 93.5976 91.6735 91.5496 93.0783 90.1705C93.5218 89.7346 93.9635 89.2969 94.4052 88.8592C94.6883 88.5806 94.9714 88.3022 95.2546 88.0239C95.3859 87.8935 95.5171 87.7631 95.6523 87.6287C95.776 87.508 95.8997 87.3872 96.0271 87.2628C96.1347 87.1568 96.2423 87.0509 96.3532 86.9417C97.2661 86.1897 97.9864 86.198 99.1279 86.2743C99.276 86.2583 99.4241 86.2423 99.5766 86.2258C99.7962 85.9025 99.7962 85.9025 100.02 85.5726C99.629 84.8548 99.629 84.8548 98.8281 84.6608C98.082 84.3796 97.8569 84.076 97.5252 83.368C97.4646 83.2147 97.404 83.0615 97.3416 82.9036C97.1516 82.4454 97.1516 82.4454 96.4718 82.3065Z" fill="white"/>
<path d="M7.98389 85.3549C8.78454 85.7069 9.50747 86.1535 10.2432 86.6205C10.4375 86.7397 10.6317 86.8588 10.8319 86.9816C11.2024 87.2091 11.5721 87.4382 11.9406 87.6689C12.4642 87.9958 12.9939 88.3114 13.5282 88.621C13.6575 88.5211 13.7867 88.4212 13.9198 88.3182C16.9536 86.089 20.2643 85.7138 23.9516 86.2259C26.4681 86.7801 28.4034 87.6379 29.9395 89.7097C30.4039 90.6217 30.2542 91.765 30.1613 92.7581C29.8148 93.493 29.8148 93.493 29.2742 94.0646C29.1716 94.1732 29.0689 94.2818 28.9632 94.3937C26.6945 96.5559 23.4751 96.8475 20.4709 96.9035C17.7343 96.8591 15.5166 95.7508 13.3065 94.2823C13.161 94.3735 13.0155 94.4647 12.8656 94.5587C12.2088 94.9703 11.5517 95.3816 10.8947 95.7929C10.6657 95.9365 10.4367 96.08 10.2008 96.228C9.98207 96.3648 9.76337 96.5016 9.53804 96.6426C9.33596 96.7692 9.13388 96.8957 8.92567 97.0261C8.05228 97.56 7.23344 97.7552 6.2097 97.5484C5.74482 97.2535 5.74482 97.2535 5.3226 96.6775C5.18614 95.8984 5.19838 95.1256 5.20478 94.3367C5.20393 94.1081 5.20308 93.8794 5.20221 93.6438C5.20161 93.1606 5.20324 92.6774 5.20695 92.1942C5.2117 91.4543 5.20699 90.7149 5.20132 89.9751C5.2019 89.5056 5.20304 89.0361 5.20478 88.5666C5.20299 88.3452 5.20119 88.1238 5.19934 87.8957C5.21998 86.3727 5.21998 86.3727 5.72343 85.6524C6.48071 85.1891 7.13756 85.1717 7.98389 85.3549ZM16.6331 90.7984C16.3464 91.2426 16.3464 91.2426 16.1895 91.6694C16.4708 91.8715 16.4708 91.8715 16.7578 92.0777C16.8633 92.1535 16.9688 92.2292 17.0775 92.3073C18.402 93.0046 19.7694 93.0602 21.2349 93.0575C21.4303 93.0572 21.6256 93.0568 21.8269 93.0564C23.2749 93.0297 24.7095 92.9153 25.9476 92.1049C26.2342 91.6607 26.2342 91.6607 26.3911 91.2339C26.2036 91.0992 26.0161 90.9645 25.8229 90.8257C25.7174 90.7499 25.6119 90.6741 25.5032 90.596C24.1787 89.8987 22.8113 89.8431 21.3458 89.8458C21.0527 89.8463 21.0527 89.8463 20.7538 89.8469C19.3058 89.8736 17.8712 89.9881 16.6331 90.7984ZM8.87099 90.5807C8.87099 91.1555 8.87099 91.7304 8.87099 92.3226C9.65722 92.0183 9.65722 92.0183 10.4234 91.6694C10.4234 91.5257 10.4234 91.382 10.4234 91.2339C9.70904 90.7297 9.70904 90.7297 8.87099 90.5807Z" fill="white"/>
<path d="M53.5169 0.421776C53.6578 0.500087 53.7987 0.578397 53.9439 0.659081C54.3832 0.897196 54.7227 1.02713 55.2217 1.08861C55.6838 0.936478 55.6838 0.936477 56.1227 0.680345C57.8769 -0.265088 60.123 -0.289845 62.069 0.141093C63.5332 0.725101 64.6361 1.7282 65.3463 3.10613C66.0317 4.9709 65.9475 6.93877 65.1445 8.74738C63.6102 11.8035 61.1214 13.9621 58.3266 15.8951C58.1082 16.0511 57.8898 16.2072 57.6647 16.368C55.726 17.6825 55.726 17.6825 54.5755 17.5673C52.6479 16.9506 50.9804 15.4184 49.4556 14.1531C49.2678 14.0007 49.08 13.8483 48.8864 13.6913C46.7035 11.8556 44.5851 9.4362 44.2569 6.53896C44.1627 4.53613 44.428 3.12756 45.7548 1.57853C47.8291 -0.126532 50.9862 -0.726895 53.5169 0.421776ZM48.3606 4.25948C47.9821 5.11201 47.9525 5.83731 48.125 6.7499C49.1763 9.35147 52.0508 11.9428 54.5564 13.2822C55.5866 13.2886 56.2782 12.6913 57.0514 12.0846C57.1776 11.9868 57.3038 11.8889 57.4339 11.7882C59.2893 10.3277 61.4601 8.60663 61.9945 6.2149C62.0526 5.31033 61.9486 4.89542 61.4176 4.137C60.6285 3.60955 60.1679 3.48377 59.2137 3.48377C58.0401 3.84137 57.378 4.34936 56.5524 5.22571C56.013 5.72111 55.7486 5.86501 55.0138 5.9878C54.1035 5.84188 53.8296 5.45911 53.2258 4.79022C51.8354 3.49893 49.9853 2.97304 48.3606 4.25948Z" fill="white"/>
<path d="M79.1734 40.0645C79.8664 40.3911 79.8664 40.3911 80.2823 40.9354C80.4368 41.5525 80.4368 42.0603 80.2823 42.6774C79.7981 43.3112 79.4404 43.5071 78.645 43.63C77.7246 43.6732 77.0997 43.6162 76.2626 43.2217C75.7589 42.5623 75.6812 42.1618 75.7428 41.3505C75.8468 40.9354 75.8468 40.9354 76.2626 40.3911C77.2483 39.9266 78.0995 39.8985 79.1734 40.0645Z" fill="white"/>
<path d="M39.9194 41.8064C40.4738 42.133 40.4738 42.133 40.8065 42.6774C40.9819 43.5529 40.9443 44.1938 40.4738 44.9637C39.6897 45.4256 39.037 45.4625 38.1452 45.2903C37.5908 44.9637 37.5908 44.9637 37.2581 44.4193C37.0827 43.5438 37.1203 42.9029 37.5908 42.133C38.3749 41.6711 39.0276 41.6342 39.9194 41.8064Z" fill="white"/>
<path d="M31.0484 41.8064C31.6029 42.133 31.6029 42.133 31.9355 42.6774C32.111 43.5529 32.0734 44.1938 31.6029 44.9637C30.8187 45.4256 30.166 45.4625 29.2742 45.2903C28.7198 44.9637 28.7198 44.9637 28.3871 44.4193C28.2117 43.5438 28.2493 42.9029 28.7198 42.133C29.504 41.6711 30.1567 41.6342 31.0484 41.8064Z" fill="white"/>
<path d="M84.2741 33.0967C84.8286 33.4233 84.8286 33.4233 85.1612 33.9677C85.3367 34.8432 85.2991 35.484 84.8286 36.2539C84.0444 36.7159 83.3917 36.7528 82.4999 36.5806C81.9455 36.2539 81.9455 36.2539 81.6128 35.7096C81.4374 34.8341 81.475 34.1932 81.9455 33.4233C82.7297 32.9614 83.3824 32.9245 84.2741 33.0967Z" fill="white"/>
<path d="M73.629 33.0967C74.1834 33.4233 74.1834 33.4233 74.5161 33.9677C74.6915 34.8432 74.6539 35.484 74.1834 36.2539C73.3993 36.7159 72.7466 36.7528 71.8548 36.5806C71.3004 36.2539 71.3004 36.2539 70.9677 35.7096C70.7923 34.8341 70.8299 34.1932 71.3004 33.4233C72.0845 32.9614 72.7372 32.9245 73.629 33.0967Z" fill="white"/>
</g>
<defs>
<clipPath id="clip0_114_1063">
<rect width="110" height="108" fill="white"/>
</clipPath>
</defs>
</svg>
