<svg width="81" height="108" viewBox="0 0 81 108" fill="none" xmlns="http://www.w3.org/2000/svg">
<g clip-path="url(#clip0_114_1091)">
<path d="M11.1596 -0.0289847C11.4051 -0.0300551 11.6507 -0.0311255 11.9037 -0.0322283C12.3082 -0.0323858 12.3082 -0.0323858 12.7209 -0.0325465C13.0074 -0.0334709 13.294 -0.0343953 13.5892 -0.0353476C14.3851 -0.0378691 15.181 -0.0390625 15.9769 -0.0400265C16.8351 -0.0412838 17.6932 -0.0437324 18.5514 -0.045994C20.6235 -0.0511637 22.6956 -0.0542513 24.7677 -0.0569754C25.3528 -0.0577585 25.9378 -0.0585965 26.5228 -0.0594545C30.1545 -0.0647762 33.7863 -0.0694287 37.418 -0.0720534C38.259 -0.0726714 39.0999 -0.0732961 39.9408 -0.0739319C40.1498 -0.0740893 40.3588 -0.0742466 40.5742 -0.0744088C43.9635 -0.0770806 47.3528 -0.0840925 50.7422 -0.0928745C54.2204 -0.101813 57.6986 -0.106793 61.1768 -0.107896C63.1303 -0.108617 65.0839 -0.111107 67.0374 -0.118043C68.7003 -0.123937 70.3631 -0.126275 72.0259 -0.123908C72.8747 -0.122811 73.7234 -0.123442 74.5722 -0.128647C75.4914 -0.134235 76.4103 -0.131702 77.3295 -0.128334C77.5992 -0.131262 77.8688 -0.13419 78.1466 -0.137207C79.9414 -0.120909 79.9414 -0.120909 80.7134 0.486163C81.0988 1.25046 81.1232 1.94045 81.11 2.76811C81.1108 2.93767 81.1117 3.10724 81.1126 3.28194C81.1142 3.84063 81.1094 4.3991 81.1043 4.95777C81.1038 5.34677 81.1036 5.73577 81.1037 6.12477C81.103 6.9392 81.0993 7.75355 81.0932 8.56796C81.0855 9.61185 81.0838 10.6557 81.0841 11.6996C81.084 12.5025 81.0815 13.3054 81.0782 14.1083C81.0768 14.4932 81.0759 14.8781 81.0756 15.2631C81.0746 15.8008 81.0706 16.3385 81.0658 16.8762C81.066 17.0352 81.0662 17.1942 81.0664 17.3581C81.0561 18.1402 81.0308 18.7504 80.5475 19.4062C79.942 19.8453 79.6159 19.8272 78.8365 19.8017C78.0587 19.6171 78.0587 19.6171 77.3799 18.7734C77.3799 13.6223 77.3799 8.47117 77.3799 3.16398C57.6684 3.16398 37.9569 3.16398 17.6481 3.16398C17.6586 7.81367 17.6691 12.4634 17.6799 17.2539C17.6845 20.1917 17.6889 23.1294 17.6923 26.0672C17.6941 27.6098 17.6959 29.1524 17.6978 30.695C17.698 30.8884 17.6983 31.0817 17.6985 31.2809C17.7025 34.4048 17.7096 37.5287 17.7179 40.6526C17.7264 43.8571 17.7314 47.0617 17.7332 50.2662C17.7345 52.2446 17.7384 54.2228 17.7458 56.2012C17.7505 57.5567 17.752 58.9122 17.7508 60.2677C17.7502 61.0505 17.7511 61.8332 17.756 62.6159C17.7612 63.4636 17.7594 64.3112 17.7569 65.1589C17.7596 65.4076 17.7622 65.6563 17.7649 65.9126C17.7631 66.1391 17.7613 66.3656 17.7594 66.599C17.7598 66.7947 17.7601 66.9905 17.7605 67.1922C17.6118 67.8782 17.3296 68.1302 16.7431 68.5546C15.8938 68.6536 15.3768 68.6667 14.6219 68.2778C13.9763 67.6527 13.9998 67.0339 14.0001 66.2097C13.9997 65.985 13.9992 65.7604 13.9988 65.5289C13.9994 65.2813 14.0001 65.0336 14.0008 64.7784C14.0006 64.516 14.0004 64.2536 14.0002 63.9833C13.9999 63.2536 14.0006 62.5239 14.0017 61.7942C14.0027 61.0078 14.0024 60.2215 14.0022 59.4351C14.0021 58.0722 14.0028 56.7093 14.0041 55.3464C14.0059 53.3758 14.0065 51.4053 14.0068 49.4348C14.0073 46.2379 14.0088 43.041 14.0109 39.8441C14.013 36.7382 14.0146 33.6323 14.0155 30.5264C14.0156 30.335 14.0157 30.1436 14.0157 29.9465C14.016 28.9864 14.0163 28.0264 14.0166 27.0663C14.0189 19.0989 14.0229 11.1314 14.028 3.16398C13.4223 3.25267 12.8175 3.34427 12.2126 3.43754C12.0436 3.46198 11.8746 3.48641 11.7005 3.51159C9.30198 3.88772 6.90861 4.88766 5.43021 6.74992C3.86748 8.91571 3.78039 10.9451 3.79199 13.4937C3.7918 13.8163 3.7914 14.1388 3.79082 14.4613C3.78981 15.3449 3.79162 16.2286 3.79389 17.1122C3.79585 18.0661 3.79518 19.0199 3.79484 19.9738C3.7946 21.6256 3.79602 23.2774 3.79857 24.9292C3.80225 27.3174 3.80342 29.7056 3.80399 32.0938C3.80498 35.9686 3.80799 39.8434 3.81227 43.7183C3.81643 47.482 3.81963 51.2457 3.82155 55.0094C3.82167 55.2414 3.82179 55.4735 3.82191 55.7126C3.8225 56.8767 3.82308 58.0409 3.82364 59.205C3.82833 68.8606 3.8363 78.5162 3.84641 88.1718C3.98617 88.0693 4.12592 87.9668 4.26992 87.8612C4.45328 87.7273 4.63665 87.5935 4.82557 87.4556C5.00732 87.3226 5.18908 87.1897 5.37634 87.0527C7.49967 85.5539 10.3272 84.986 12.9514 85.0014C13.1535 85.0023 13.3556 85.0032 13.5638 85.0042C13.717 85.0053 13.8702 85.0065 14.028 85.0077C14.0265 84.8647 14.025 84.7217 14.0234 84.5744C14.0084 83.0859 13.9982 81.5975 13.9907 80.1089C13.9873 79.5534 13.9826 78.9979 13.9768 78.4425C13.9685 77.644 13.9647 76.8455 13.9617 76.047C13.9564 75.6745 13.9564 75.6745 13.9511 75.2945C13.951 75.0623 13.951 74.8301 13.9509 74.5909C13.9494 74.3871 13.9479 74.1834 13.9464 73.9734C14.0437 73.2971 14.2794 72.9008 14.7067 72.3515C15.3523 72.0506 15.8006 72.0751 16.5168 72.1405C16.8901 72.419 17.2635 72.6974 17.6481 72.9843C17.6481 76.952 17.6481 80.9198 17.6481 85.0077C37.3596 85.0077 57.0711 85.0077 77.3799 85.0077C77.3694 80.6321 77.3589 76.2565 77.3481 71.7483C77.3435 68.9836 77.3391 66.2189 77.3357 63.4542C77.334 62.0024 77.3321 60.5507 77.3302 59.0989C77.33 58.9169 77.3297 58.735 77.3295 58.5475C77.3256 55.6077 77.3184 52.6679 77.3101 49.7281C77.3017 46.7124 77.2966 43.6966 77.2948 40.6809C77.2935 38.8191 77.2896 36.9575 77.2823 35.0957C77.2775 33.82 77.276 32.5444 77.2772 31.2687C77.2778 30.532 77.2769 29.7955 77.272 29.0589C77.2676 28.261 77.2686 27.4633 77.2711 26.6655C77.2685 26.4316 77.2658 26.1977 77.2631 25.9567C77.2649 25.7434 77.2667 25.5301 77.2686 25.3103C77.2682 25.1261 77.2679 24.9419 77.2675 24.7521C77.4175 24.0926 77.7378 23.8393 78.285 23.414C78.8824 23.1624 79.1321 23.1886 79.7698 23.3481C80.4002 23.6646 80.6314 23.9 81 24.4687C81.0854 25.0172 81.0854 25.0172 81.0861 25.6534C81.088 25.8961 81.0899 26.1389 81.0919 26.389C81.0905 26.6559 81.0892 26.9227 81.0878 27.1977C81.0887 27.4839 81.0899 27.7701 81.0915 28.0564C81.0947 28.8437 81.0938 29.631 81.0921 30.4183C81.091 31.2671 81.0938 32.1159 81.0962 32.9647C81.1001 34.6278 81.1002 36.291 81.0991 37.9541C81.0981 39.3057 81.0985 40.6572 81.0997 42.0087C81.0999 42.2009 81.1 42.3931 81.1002 42.5911C81.1005 42.9815 81.1009 43.3719 81.1012 43.7623C81.1044 47.4253 81.1031 51.0882 81.1005 54.7512C81.0983 58.1039 81.1012 61.4566 81.1066 64.8094C81.1121 68.2501 81.1143 71.6909 81.1128 75.1317C81.112 77.0642 81.1125 78.9966 81.1165 80.9291C81.1198 82.5741 81.12 84.2192 81.116 85.8642C81.1141 86.7038 81.1136 87.5434 81.1171 88.383C81.1202 89.1513 81.1191 89.9196 81.1147 90.6879C81.1135 91.0981 81.1167 91.5083 81.12 91.9185C81.1178 92.1618 81.1156 92.4052 81.1133 92.6559C81.1133 92.8658 81.1133 93.0758 81.1132 93.2921C80.9674 94.0331 80.6583 94.3907 80.095 94.9218C79.4315 95.0415 79.4315 95.0415 78.6703 95.0248C78.3976 95.0214 78.1249 95.018 77.8439 95.0145C77.5602 95.0057 77.2764 94.9968 76.984 94.9877C76.6967 94.983 76.4094 94.9782 76.1134 94.9733C75.4042 94.9609 74.6951 94.9419 73.9861 94.9218C73.9861 95.9659 73.9861 97.0101 73.9861 98.0859C74.3649 98.0785 74.7438 98.0712 75.1342 98.0636C75.6329 98.0577 76.1317 98.0519 76.6305 98.0463C77.0047 98.0384 77.0047 98.0384 77.3866 98.0302C77.6279 98.0282 77.8693 98.0262 78.1179 98.0241C78.3395 98.0207 78.5611 98.0174 78.7893 98.014C79.5345 98.0994 79.9459 98.3056 80.5475 98.7187C81.1099 99.5051 81.0732 100.126 81.0761 101.037C81.0776 101.202 81.0791 101.368 81.0806 101.538C81.0829 101.887 81.084 102.236 81.0839 102.586C81.0849 103.119 81.0931 103.651 81.1017 104.184C81.103 104.524 81.1039 104.864 81.1043 105.203C81.1076 105.362 81.1108 105.521 81.1142 105.684C81.1077 106.386 81.0307 106.891 80.6801 107.515C79.7985 108.246 79.0071 108.145 77.8638 108.13C77.6374 108.131 77.4111 108.132 77.1779 108.133C76.4294 108.136 75.6811 108.131 74.9326 108.125C74.4131 108.125 73.8935 108.125 73.3739 108.125C72.285 108.125 71.1962 108.121 70.1073 108.114C68.7098 108.106 67.3125 108.105 65.915 108.107C64.8422 108.107 63.7694 108.105 62.6967 108.101C62.1813 108.1 61.6659 108.099 61.1505 108.099C60.4311 108.099 59.7119 108.094 58.9925 108.088C58.7785 108.089 58.5644 108.09 58.3439 108.09C58.0503 108.087 58.0503 108.087 57.7508 108.083C57.4957 108.082 57.4957 108.082 57.2355 108.081C56.6671 107.977 56.4646 107.788 56.1118 107.367C56.0216 106.912 56.0216 106.912 56.0269 106.418C56.0252 106.255 56.0234 106.092 56.0216 105.924C56.1343 105.355 56.3136 105.196 56.7905 104.836C57.4623 104.777 58.086 104.756 58.7576 104.764C58.9586 104.764 59.1595 104.764 59.3665 104.764C60.0313 104.764 60.696 104.769 61.3608 104.774C61.8214 104.775 62.2821 104.776 62.7427 104.777C63.9557 104.779 65.1686 104.785 66.3816 104.792C67.6191 104.799 68.8567 104.802 70.0942 104.805C72.5228 104.812 74.9514 104.823 77.3799 104.836C77.3799 103.722 77.3799 102.608 77.3799 101.461C77.0402 101.462 76.7004 101.462 76.3503 101.463C68.2828 101.481 60.2153 101.495 52.1478 101.504C51.1546 101.505 50.1614 101.506 49.1682 101.507C48.8717 101.508 48.8717 101.508 48.5691 101.508C45.3685 101.512 42.1679 101.518 38.9672 101.526C35.6826 101.534 32.398 101.539 29.1133 101.54C27.0868 101.541 25.0604 101.545 23.034 101.552C21.644 101.556 20.254 101.558 18.8639 101.557C18.0622 101.556 17.2606 101.557 16.4588 101.561C15.5886 101.566 14.7185 101.565 13.8483 101.562C13.5962 101.565 13.3442 101.567 13.0846 101.57C11.1974 101.556 9.64854 101.239 8.2867 99.9579C7.31444 98.7738 6.93349 97.4309 7.01401 95.9501C7.23322 94.5503 7.95187 93.6345 8.99376 92.641C10.7315 91.5506 12.4514 91.4555 14.5013 91.4707C14.7709 91.4702 15.0406 91.4696 15.3185 91.4691C16.062 91.4682 16.8055 91.4702 17.549 91.4733C18.3527 91.4761 19.1563 91.4752 19.96 91.4747C21.3508 91.4743 22.7415 91.4763 24.1322 91.4799C26.143 91.485 28.1538 91.4867 30.1645 91.4875C33.4272 91.4889 36.6899 91.4931 39.9526 91.4991C43.1211 91.5049 46.2897 91.5093 49.4582 91.512C49.6537 91.5122 49.8492 91.5124 50.0505 91.5125C51.0311 91.5134 52.0117 91.5142 52.9923 91.515C61.1215 91.5215 69.2507 91.5327 77.3799 91.5468C77.3799 90.5027 77.3799 89.4585 77.3799 88.3827C69.0423 88.3904 60.7046 88.4023 52.367 88.4203C51.3817 88.4224 50.3965 88.4245 49.4113 88.4265C49.2152 88.4269 49.019 88.4273 48.8169 88.4277C45.6447 88.4343 42.4725 88.4379 39.3003 88.4404C36.0433 88.443 32.7863 88.4488 29.5292 88.4575C27.5208 88.4628 25.5125 88.4657 23.5041 88.4653C22.1253 88.4653 20.7465 88.4684 19.3677 88.4739C18.5732 88.477 17.7787 88.4787 16.9842 88.4768C16.1202 88.4754 15.2564 88.4792 14.3924 88.4842C14.1448 88.4826 13.8972 88.4809 13.6421 88.4792C10.778 88.5086 8.2041 89.2653 6.10898 91.1249C4.4907 92.9486 3.64157 95.085 3.84641 97.453C4.12409 99.6679 5.26758 101.584 7.11476 102.996C9.93317 104.768 12.9802 104.656 16.2334 104.651C16.6156 104.652 16.9978 104.652 17.3801 104.653C18.1997 104.654 19.0193 104.654 19.8389 104.654C21.1348 104.654 22.4306 104.657 23.7264 104.66C23.9455 104.661 24.1646 104.661 24.3903 104.662C24.838 104.663 25.2857 104.664 25.7334 104.665C28.748 104.673 31.7626 104.678 34.7772 104.678C36.8142 104.677 38.8513 104.681 40.8883 104.688C41.9655 104.692 43.0426 104.694 44.1198 104.692C45.1314 104.689 46.1429 104.692 47.1545 104.698C47.5259 104.699 47.8973 104.699 48.2687 104.697C48.7753 104.694 49.2813 104.697 49.7878 104.702C50.0713 104.703 50.3548 104.703 50.6469 104.703C51.3604 104.836 51.3604 104.836 51.9121 105.324C52.2654 105.891 52.2654 105.891 52.2513 106.655C51.9676 107.607 51.9676 107.607 51.3604 108C50.7966 108.063 50.2891 108.086 49.7251 108.082C49.5574 108.083 49.3896 108.084 49.2168 108.085C48.653 108.088 48.0894 108.087 47.5256 108.085C47.1219 108.086 46.7183 108.088 46.3147 108.09C45.2165 108.093 44.1183 108.093 43.0201 108.092C42.1026 108.091 41.1851 108.093 40.2676 108.094C38.1011 108.097 35.9347 108.096 33.7682 108.094C31.5369 108.092 29.3057 108.095 27.0745 108.1C25.1571 108.105 23.2398 108.106 21.3225 108.105C20.1782 108.104 19.034 108.105 17.8897 108.108C16.8116 108.112 15.7337 108.111 14.6556 108.107C14.2616 108.106 13.8676 108.107 13.4736 108.109C9.71471 108.129 6.41649 107.377 3.56359 104.915C0.472242 101.781 -0.140926 98.2468 -0.114882 94.1604C-0.115928 93.798 -0.117367 93.4355 -0.119161 93.0731C-0.122907 92.0867 -0.121086 91.1004 -0.118268 90.114C-0.116208 89.0465 -0.119387 87.979 -0.12187 86.9115C-0.125882 84.8241 -0.12503 82.7367 -0.122402 80.6493C-0.120353 78.9519 -0.120082 77.2545 -0.121065 75.5572C-0.121204 75.315 -0.121343 75.0729 -0.121486 74.8235C-0.121775 74.3316 -0.122069 73.8397 -0.122366 73.3477C-0.124943 68.7412 -0.121985 64.1346 -0.117117 59.5281C-0.113074 55.5804 -0.113776 51.6327 -0.117948 47.685C-0.122797 43.0943 -0.124695 38.5036 -0.121919 33.9128C-0.121631 33.4228 -0.121346 32.9327 -0.121065 32.4427C-0.120926 32.2016 -0.120786 31.9605 -0.120643 31.7121C-0.119863 30.0179 -0.121176 28.3237 -0.12331 26.6295C-0.125855 24.5633 -0.125147 22.497 -0.12034 20.4307C-0.117971 19.3776 -0.117014 18.3246 -0.120023 17.2715C-0.122741 16.3055 -0.121203 15.3396 -0.116423 14.3736C-0.115421 14.0262 -0.115906 13.6787 -0.118121 13.3313C-0.141702 9.32029 0.719964 6.0275 3.73682 3.02143C5.70891 1.30139 8.4201 -0.0226389 11.1596 -0.0289847ZM11.0866 95.5546C10.5657 96.1486 10.5657 96.1486 10.6624 96.8202C10.8946 97.5623 11.0692 97.6969 11.7654 98.0859C12.2594 98.1788 12.2594 98.1788 12.792 98.1637C12.9979 98.165 13.2038 98.1662 13.416 98.1675C13.7541 98.1648 13.7541 98.1648 14.0989 98.162C14.339 98.1625 14.5791 98.163 14.8264 98.1636C15.6335 98.1646 16.4405 98.1612 17.2475 98.1577C17.825 98.1575 18.4024 98.1576 18.9799 98.158C20.2245 98.1581 21.4691 98.1563 22.7137 98.1528C24.5132 98.1476 26.3126 98.146 28.1121 98.1452C31.0316 98.1438 33.9511 98.1396 36.8705 98.1336C39.7066 98.1278 42.5427 98.1233 45.3788 98.1206C45.641 98.1204 45.641 98.1204 45.9085 98.1201C46.7854 98.1193 47.6624 98.1185 48.5393 98.1177C55.8149 98.1111 63.0904 98.0999 70.366 98.0859C70.366 97.0417 70.366 95.9976 70.366 94.9218C62.9775 94.9074 55.5891 94.8962 48.2006 94.8895C47.3286 94.8887 46.4566 94.8879 45.5846 94.887C45.3242 94.8868 45.3242 94.8868 45.0585 94.8865C42.2465 94.8838 39.4344 94.8788 36.6224 94.873C33.7376 94.8671 30.8529 94.8635 27.9681 94.8623C26.1876 94.8614 24.4071 94.8586 22.6267 94.8535C21.2621 94.8498 19.8975 94.8494 18.5329 94.8502C17.9726 94.85 17.4123 94.8488 16.852 94.8464C16.0885 94.8432 15.325 94.844 14.5615 94.8457C14.3385 94.8439 14.1156 94.842 13.8859 94.8401C12.7744 94.8469 11.9751 94.8572 11.0866 95.5546Z" fill="white"/>
<path d="M46.8962 33.5136C52.7217 33.3644 57.7226 35.6209 61.8959 39.2723C64.64 41.7442 66.7158 44.9983 66.8024 48.6211C66.7436 50.9387 66.0331 53.0004 64.2994 54.712C62.4162 56.3548 60.4731 56.6321 57.9775 56.5898C55.6243 56.4905 53.7579 55.5725 51.8128 54.4219C49.849 53.2952 48.2446 52.8599 45.9302 53.1563C44.6364 53.4704 43.5947 54.1781 42.4797 54.8438C39.7959 56.3996 37.1011 56.9099 33.9633 56.4316C32.0437 55.9732 30.7832 55.046 29.6821 53.5254C28.2002 51.1819 27.8431 48.7307 28.5367 46.0635C29.2458 43.9627 30.3722 42.1652 31.9022 40.5C32.0481 40.3312 32.1939 40.1623 32.3441 39.9884C35.6207 36.351 40.451 34.2061 45.4494 33.5918C45.9315 33.5571 46.4134 33.5376 46.8962 33.5136ZM35.5674 41.2062C33.4311 43.6082 31.6125 46.3624 31.9022 49.5704C32.2567 50.9725 32.9352 51.95 34.2072 52.7871C35.3604 53.3441 36.4361 53.5063 37.7098 53.242C39.0834 52.8229 40.1709 52.1964 41.3281 51.4004C43.2089 50.1446 45.1976 49.6994 47.4857 49.7154C47.7541 49.7172 47.7541 49.7172 48.0279 49.719C50.6427 49.7696 52.489 50.6388 54.6066 52.0283C56.0862 52.996 57.4244 53.5728 59.2758 53.284C60.6142 52.9092 61.6886 52.1346 62.4469 51.0469C63.2098 49.5832 63.1788 47.7178 62.6935 46.1723C62.4197 45.5912 62.1163 45.0531 61.7682 44.5079C61.6672 44.3461 61.5663 44.1843 61.4624 44.0176C58.9969 40.3387 55.4136 38.2122 50.9812 37.0748C45.4607 35.8954 39.5107 37.3451 35.5674 41.2062Z" fill="white"/>
<path d="M42.3622 17.3643C42.4943 17.4813 42.6264 17.5982 42.7626 17.7186C42.883 17.8225 43.0035 17.9264 43.1276 18.0334C45.1569 19.9987 46.0217 22.8299 46.0009 25.497C45.9994 25.7463 45.9994 25.7463 45.998 26.0006C45.9568 27.9835 45.5223 29.6844 43.984 31.1395C42.672 32.2604 41.4791 32.5829 39.7099 32.5337C37.7038 32.3589 36.4096 31.3047 35.0698 29.953C33.1171 27.5374 32.2838 24.6263 32.6429 21.6325C32.9249 20.0498 33.4999 18.3965 34.8294 17.3099C37.2482 15.7913 40.0384 15.52 42.3622 17.3643ZM37.1627 20.0653C36.1405 21.283 36.0155 22.5456 36.2011 24.0468C36.6916 25.8915 37.5995 27.5606 39.1425 28.8192C39.9709 29.1732 40.3258 29.1922 41.1788 28.8983C42.3258 27.8001 42.3893 26.8051 42.3972 25.3218C42.3482 23.2541 41.445 21.6256 39.9458 20.1288C39.4552 19.7082 39.1742 19.621 38.5061 19.538C37.7505 19.5624 37.7505 19.5624 37.1627 20.0653Z" fill="white"/>
<path d="M59.6885 16.9573C61.1407 17.9516 61.7971 19.2855 62.2207 20.8827C62.3139 21.5712 62.3288 22.2461 62.3196 22.9394C62.3178 23.1236 62.3159 23.3078 62.314 23.4976C62.2381 26.2247 61.2858 28.5762 59.2988 30.6065C57.9923 31.7492 56.5678 32.5086 54.7542 32.5898C53.2611 32.527 52.0953 32.0305 50.9502 31.1528C49.1944 29.1417 48.8047 26.9752 48.8954 24.4324C49.1919 21.8174 50.5427 19.2044 52.656 17.4459C54.8028 15.9431 57.3151 15.6929 59.6885 16.9573ZM54.6366 20.2755C53.139 22.0475 52.3672 24.238 52.4191 26.4792C52.5343 27.3064 52.8385 28.0322 53.3966 28.6874C54.1774 29.1297 54.7457 29.2285 55.6592 29.1093C57.1923 28.2755 58.016 26.6768 58.501 25.1154C58.6672 24.3878 58.661 23.6537 58.6712 22.913C58.6811 22.6781 58.6811 22.6781 58.6911 22.4384C58.7048 21.3292 58.4829 20.7078 57.6955 19.8281C56.5952 19.3151 55.5239 19.497 54.6366 20.2755Z" fill="white"/>
<path d="M33.8176 62.1194C34.0688 62.1171 34.32 62.1147 34.5789 62.1122C34.9908 62.1148 34.9908 62.1148 35.411 62.1174C35.846 62.1152 35.846 62.1152 36.2897 62.1129C37.0844 62.1091 37.879 62.1106 38.6738 62.1132C39.5056 62.1154 40.3374 62.1134 41.1692 62.1121C42.566 62.1105 43.9628 62.1126 45.3597 62.1166C46.9745 62.1212 48.5891 62.1197 50.2039 62.115C51.5905 62.1112 52.9771 62.1107 54.3637 62.1129C55.1918 62.1142 56.0198 62.1144 56.8479 62.1116C57.771 62.1087 58.6939 62.1127 59.617 62.1174C60.0288 62.1148 60.0288 62.1148 60.4491 62.1122C60.7003 62.1146 60.9515 62.117 61.2104 62.1194C61.4286 62.1198 61.6468 62.1201 61.8717 62.1204C62.6206 62.2586 62.8901 62.513 63.352 63.0703C63.4651 63.8086 63.4651 63.8086 63.352 64.5469C62.85 65.1601 62.5557 65.3569 61.7682 65.6016C61.3837 65.6219 60.9985 65.63 60.6134 65.6312C60.2551 65.633 60.2551 65.633 59.8896 65.6349C59.6276 65.6351 59.3656 65.6353 59.0957 65.6356C58.6817 65.6371 58.6817 65.6371 58.2594 65.6387C57.502 65.6413 56.7447 65.6429 55.9874 65.6438C55.514 65.6444 55.0407 65.6453 54.5673 65.6462C53.0857 65.6491 51.6042 65.6512 50.1226 65.652C48.4134 65.6529 46.7043 65.6566 44.9951 65.6627C43.6732 65.6673 42.3514 65.6694 41.0296 65.6697C40.2405 65.6699 39.4513 65.6712 38.6622 65.6749C37.7815 65.6791 36.9008 65.6781 36.0201 65.6768C35.6292 65.6797 35.6292 65.6797 35.2303 65.6827C33.9628 65.6765 32.9809 65.6696 31.9022 64.9688C31.5525 64.3166 31.6096 63.7887 31.676 63.0703C32.3242 62.2798 32.7657 62.121 33.8176 62.1194Z" fill="white"/>
<path d="M70.4137 27.154C71.6984 28.0039 72.2591 29.097 72.572 30.5067C72.794 32.5924 72.039 34.5555 70.8185 36.2812C69.4296 37.7769 67.8306 38.841 65.6959 39.0942C64.5258 39.1367 63.6525 39.0338 62.6732 38.3905C61.3509 37.217 60.8545 36.1675 60.7783 34.4618C60.8303 32.0199 61.8049 30.1618 63.6021 28.4427C65.5613 26.7104 67.8912 25.8282 70.4137 27.154ZM66.0671 30.7968C65.0222 32.1778 64.3844 33.2951 64.4833 35.0155C64.6326 35.2244 64.7819 35.4332 64.9358 35.6483C65.8568 35.6662 66.3052 35.6115 67.0119 35.0378C68.124 33.8948 68.849 32.9769 68.8387 31.39C68.8399 31.2087 68.8411 31.0273 68.8423 30.8405C68.8287 30.3314 68.8287 30.3314 68.3296 29.953C67.3016 29.953 66.7875 30.145 66.0671 30.7968Z" fill="white"/>
<path d="M30.0922 27.4219C32.1582 28.7657 33.3327 30.5032 34.0234 32.7481C34.3323 34.4762 34.2379 35.9817 33.2368 37.5041C32.6037 38.2733 31.9775 38.7188 30.9972 39.0235C29.0619 39.2508 27.5654 38.9199 25.9913 37.8543C24.3625 36.5975 22.9832 35.1058 22.6257 33.1172C22.2711 29.5748 22.2711 29.5748 23.2276 28.1627C25.129 26.1626 27.6898 26.1735 30.0922 27.4219ZM26.3024 30.1773C25.8404 30.8448 25.9126 31.2776 26.0195 32.0625C26.6474 33.6065 27.4738 34.7242 28.9609 35.6485C29.5361 35.7364 29.5361 35.7364 30.0922 35.6485C30.6568 34.8589 30.576 34.5298 30.4404 33.6256C30.0502 31.999 29.0839 30.8734 27.6033 29.9532C26.75 29.8802 26.75 29.8802 26.3024 30.1773Z" fill="white"/>
<path d="M37.1356 68.7106C37.4206 68.7083 37.4206 68.7083 37.7114 68.706C38.0229 68.7068 38.0229 68.7068 38.3408 68.7076C38.6698 68.706 38.6698 68.706 39.0054 68.7043C39.7319 68.7014 40.4584 68.7016 41.185 68.7021C41.6891 68.7013 42.1932 68.7004 42.6974 68.6994C43.7547 68.6978 44.812 68.6979 45.8694 68.699C47.2255 68.7002 48.5815 68.6966 49.9376 68.6917C50.9789 68.6886 52.0203 68.6884 53.0616 68.6891C53.5616 68.689 54.0617 68.6879 54.5617 68.6857C55.2605 68.6832 55.9591 68.6846 56.6579 68.687C56.8651 68.6854 57.0724 68.6838 57.2859 68.6821C58.6796 68.6929 58.6796 68.6929 59.4016 69.049C59.8979 69.5741 59.9433 69.9719 59.9581 70.664C59.5835 71.4727 59.2375 71.8116 58.3743 72.1405C57.9269 72.1942 57.9269 72.1942 57.4485 72.1955C57.2661 72.197 57.0838 72.1985 56.8959 72.2001C56.5987 72.1993 56.5987 72.1993 56.2956 72.1985C56.0855 72.1996 55.8753 72.2006 55.6588 72.2018C54.9639 72.2047 54.2691 72.2045 53.5743 72.204C53.0913 72.2048 52.6083 72.2057 52.1254 72.2067C51.1129 72.2083 50.1005 72.2082 49.0881 72.2071C47.7906 72.2059 46.4932 72.2095 45.1957 72.2144C44.1983 72.2175 43.2008 72.2177 42.2033 72.217C41.7249 72.2171 41.2465 72.2182 40.7682 72.2204C40.0993 72.223 39.4305 72.2215 38.7616 72.2191C38.4652 72.2215 38.4652 72.2215 38.1628 72.224C37.1016 72.2154 36.3755 72.164 35.5224 71.5077C35.1437 70.8017 35.0188 70.4324 35.2254 69.662C35.7129 68.8829 36.2185 68.713 37.1356 68.7106Z" fill="white"/>
</g>
<defs>
<clipPath id="clip0_114_1091">
<rect width="81" height="108" fill="white"/>
</clipPath>
</defs>
</svg>
