<svg width="25" height="24" viewBox="0 0 25 24" fill="none" xmlns="http://www.w3.org/2000/svg">
<path d="M20.8046 14.8845C19.5258 14.8845 18.2885 14.6909 17.1344 14.3425C16.7705 14.2264 16.3651 14.3135 16.0843 14.5748L14.452 16.4813C11.5096 15.1748 8.75438 12.707 7.28838 9.87136L9.31582 8.26484C9.59654 7.99386 9.67972 7.61642 9.56535 7.2777C9.18066 6.20346 8.98311 5.0518 8.98311 3.86143C8.98311 3.33882 8.51524 2.90332 7.9538 2.90332H4.3564C3.79495 2.90332 3.11914 3.13559 3.11914 3.86143C3.11914 12.8521 11.1561 20.3234 20.8046 20.3234C21.5428 20.3234 21.8339 19.7137 21.8339 19.1814V15.8426C21.8339 15.32 21.3661 14.8845 20.8046 14.8845Z" fill="#FEBB00"/>
</svg>
