<svg width="111" height="108" viewBox="0 0 111 108" fill="none" xmlns="http://www.w3.org/2000/svg">
<g clip-path="url(#clip0_114_1077)">
<path d="M11.7157 21.4365C12.0219 21.4314 12.328 21.4262 12.6435 21.4209C12.9373 21.4201 13.2311 21.4193 13.5338 21.4184C13.8019 21.4167 14.07 21.415 14.3462 21.4132C15.2036 21.5378 15.4799 21.764 16.0081 22.3594C16.1437 22.7813 16.1437 22.7813 16.1427 23.2031C16.148 23.3424 16.1532 23.4816 16.1586 23.625C15.9012 24.3467 15.5647 24.5245 14.8116 24.8906C13.5844 25.0263 12.3494 24.9873 11.1147 24.9751C10.8633 24.9774 10.6119 24.9797 10.3529 24.9821C10.1236 24.9801 9.89441 24.978 9.65823 24.9759C9.02678 25.057 9.02678 25.057 8.63474 25.5458C8.29598 26.2737 8.26148 26.8202 8.2637 27.6065C8.26393 28.0225 8.26393 28.0225 8.26417 28.4469C8.26615 28.5904 8.26814 28.7338 8.27018 28.8816C8.27584 29.319 8.2751 29.7563 8.27351 30.1937C8.22479 31.9254 8.22479 31.9254 8.82922 33.5391C9.72449 33.8021 10.5568 33.7806 11.4893 33.7796C11.7897 33.7806 11.7897 33.7806 12.0962 33.7815C12.7697 33.7834 13.4431 33.7837 14.1166 33.784C14.5984 33.785 15.0803 33.786 15.5622 33.7872C16.8728 33.79 18.1835 33.7913 19.4942 33.7922C20.3124 33.7929 21.1307 33.7937 21.9489 33.7947C24.5074 33.7976 27.0658 33.7996 29.6243 33.8004C32.5809 33.8014 35.5375 33.8051 38.4941 33.8112C40.7775 33.8157 43.061 33.8179 45.3444 33.8181C46.7092 33.8184 48.0739 33.8196 49.4387 33.8234C50.7219 33.8268 52.005 33.8273 53.2882 33.8255C53.7597 33.8253 54.2312 33.8262 54.7027 33.8283C55.3453 33.831 55.9877 33.8297 56.6303 33.8275C56.9117 33.8301 56.9117 33.8301 57.1987 33.8327C57.9607 33.8265 58.5168 33.7899 59.1973 33.475C59.7916 32.8889 59.6916 32.2091 59.6788 31.4627C59.6791 31.3012 59.6795 31.1397 59.6798 30.9734C59.6795 30.6322 59.6767 30.2911 59.6717 29.95C59.6648 29.4277 59.6668 28.9058 59.6699 28.3835C59.6684 28.052 59.6664 27.7204 59.6638 27.3889C59.6645 27.2327 59.6652 27.0765 59.666 26.9155C59.6579 26.1029 59.6579 26.1029 59.2909 25.3769C58.6302 24.9715 58.1089 25.0215 57.3088 25.0203C57.1525 25.0192 56.9962 25.0181 56.8352 25.017C56.3105 25.014 55.7859 25.0156 55.2612 25.0171C54.8854 25.0159 54.5097 25.0144 54.1339 25.0126C53.3242 25.0094 52.5146 25.0082 51.7049 25.0085C50.4249 25.0089 49.145 25.0048 47.8651 25C45.3791 24.9914 42.893 24.9875 40.407 24.984C37.2434 24.9793 34.0798 24.9722 30.9162 24.9614C29.6435 24.9571 28.3708 24.9551 27.0981 24.9548C26.3066 24.9542 25.5152 24.952 24.7237 24.9492C24.3564 24.9483 23.989 24.9481 23.6217 24.9487C23.1206 24.9495 22.6196 24.9476 22.1186 24.9451C21.838 24.9448 21.5575 24.9444 21.2685 24.9441C20.5713 24.8919 20.178 24.803 19.5976 24.4688C19.1456 23.9375 19.1173 23.6613 19.1489 22.9922C19.3963 22.2444 19.6224 21.9926 20.3155 21.5156C21.0415 21.4101 21.0415 21.4101 21.9092 21.4099C22.0691 21.4088 22.229 21.4076 22.3937 21.4064C22.9292 21.4035 23.4645 21.4067 24.0001 21.4098C24.3841 21.409 24.7682 21.4079 25.1523 21.4064C26.1955 21.4034 27.2387 21.4058 28.282 21.4093C29.3741 21.4122 30.4662 21.4108 31.5583 21.4101C33.3931 21.4095 35.2279 21.4123 37.0628 21.4172C39.1824 21.4228 41.3021 21.4232 43.4218 21.4207C45.4617 21.4185 47.5017 21.4198 49.5416 21.4228C50.4092 21.424 51.2767 21.424 52.1443 21.423C53.167 21.4219 54.1897 21.4241 55.2124 21.4286C55.5872 21.4298 55.962 21.4299 56.3367 21.4289C56.8496 21.4276 57.3623 21.4303 57.8752 21.4339C58.1618 21.4344 58.4484 21.4349 58.7437 21.4354C60.3405 21.5923 61.5465 22.212 62.6709 23.2031C63.5858 24.4071 63.7731 25.4948 63.7637 26.9193C63.7651 27.1085 63.7666 27.2978 63.7682 27.4928C63.7698 27.8909 63.7691 28.2891 63.7661 28.6872C63.7627 29.291 63.7709 29.8941 63.78 30.4978C63.7986 34.3531 63.7986 34.3531 62.4316 35.8594C61.2812 36.8683 59.913 37.2089 58.3636 37.5469C58.5515 37.7253 58.7393 37.9036 58.9329 38.0874C60.2796 39.3683 61.621 40.6503 62.9102 41.9766C63.1985 42.2617 63.1985 42.2617 63.4926 42.5525C67.1861 46.2564 67.566 49.9974 67.5536 54.7275C67.5549 55.2004 67.5566 55.6734 67.5585 56.1463C67.5628 57.4233 67.5625 58.7002 67.5612 59.9772C67.5604 61.0465 67.5619 62.1158 67.5633 63.1851C67.5669 65.8533 67.566 68.5215 67.5631 71.1896C67.5608 73.4992 67.5639 75.8088 67.5696 78.1183C67.5754 80.4983 67.5776 82.8782 67.5761 85.2581C67.5753 86.5909 67.5759 87.9236 67.58 89.2564C67.5837 90.5103 67.5827 91.7641 67.5783 93.018C67.5774 93.4758 67.5781 93.9336 67.5806 94.3913C67.6018 98.5604 67.1681 102 63.8375 105.205C61.2457 107.38 58.3337 108.065 54.8697 108.058C54.5975 108.059 54.3253 108.06 54.0448 108.061C53.1497 108.064 52.2546 108.064 51.3595 108.063C50.7362 108.064 50.113 108.065 49.4897 108.066C48.1861 108.068 46.8825 108.068 45.5788 108.067C44.0719 108.065 42.565 108.068 41.058 108.072C39.606 108.077 38.1541 108.077 36.7021 108.076C36.0849 108.077 35.4677 108.078 34.8505 108.08C33.99 108.082 33.1297 108.081 32.2692 108.079C32.013 108.08 31.7568 108.082 31.4928 108.083C31.259 108.082 31.0252 108.08 30.7844 108.079C30.4794 108.079 30.4794 108.079 30.1683 108.079C29.5299 107.982 29.3185 107.816 28.9301 107.367C28.8348 106.912 28.8348 106.912 28.8404 106.418C28.8376 106.173 28.8376 106.173 28.8348 105.924C28.9545 105.352 29.1366 105.194 29.648 104.836C30.1289 104.756 30.1289 104.756 30.6887 104.755C30.9013 104.753 31.1139 104.751 31.333 104.749C31.5657 104.749 31.7984 104.75 32.0382 104.751C32.4066 104.749 32.4066 104.749 32.7825 104.747C33.5972 104.743 34.4119 104.743 35.2266 104.743C35.7934 104.74 36.3601 104.738 36.9268 104.734C38.4223 104.727 39.9178 104.723 41.4133 104.719C43.8002 104.714 46.187 104.706 48.5739 104.694C49.4056 104.69 50.2373 104.689 51.0691 104.689C51.5843 104.687 52.0996 104.685 52.6149 104.682C52.8437 104.683 53.0725 104.683 53.3083 104.684C56.0172 104.666 58.725 104.366 60.8192 102.724C62.9229 100.76 63.1779 99.1767 63.6281 96.3985C44.1231 96.3985 24.618 96.3985 4.52189 96.3985C4.847 99.4725 4.847 99.4725 6.59423 102.018C6.91485 102.305 6.91485 102.305 6.91485 102.727C7.05274 102.785 7.19062 102.844 7.33269 102.905C7.87204 103.148 7.87204 103.148 8.34409 103.406C10.5958 104.622 12.9746 104.685 15.5594 104.69C16.1038 104.695 16.6481 104.701 17.1925 104.706C18.0411 104.712 18.8897 104.717 19.7384 104.721C20.5639 104.726 21.3894 104.734 22.2149 104.743C22.5974 104.743 22.5974 104.743 22.9876 104.743C23.2233 104.746 23.4591 104.749 23.7021 104.751C23.9093 104.753 24.1166 104.754 24.3302 104.755C24.9775 104.854 25.1841 105.015 25.58 105.469C25.8294 106.111 25.8491 106.437 25.6248 107.09C25.3407 107.578 25.3407 107.578 24.8621 108C24.2697 108.056 24.2697 108.056 23.5134 108.061C23.2304 108.064 22.9475 108.067 22.656 108.069C22.3482 108.07 22.0403 108.07 21.7232 108.071C21.4035 108.072 21.0838 108.074 20.7641 108.075C20.0918 108.078 19.4195 108.078 18.7472 108.078C17.8933 108.078 17.0396 108.084 16.1857 108.091C15.5238 108.096 14.8619 108.097 14.1999 108.097C13.7345 108.097 13.269 108.102 12.8036 108.106C10.3828 108.096 8.06284 107.743 6.09227 106.418C5.80169 106.224 5.80169 106.224 5.50525 106.027C5.33867 105.912 5.1721 105.798 5.00048 105.68C4.78826 105.554 4.57603 105.427 4.35737 105.297C2.07173 103.392 0.721061 100.695 0.63225 97.9323C0.629344 97.5697 0.628986 97.2071 0.630761 96.8446C0.629388 96.5425 0.629388 96.5425 0.627987 96.2343C0.625531 95.5639 0.626467 94.8937 0.62742 94.2233C0.626379 93.7409 0.625138 93.2584 0.623714 92.7759C0.620515 91.4684 0.620371 90.161 0.620977 88.8535C0.621233 87.7606 0.620063 86.6677 0.618918 85.5747C0.616113 82.8481 0.616315 80.1215 0.617854 77.3949C0.619091 75.0315 0.616399 72.6681 0.611849 70.3047C0.607203 67.8733 0.605307 65.442 0.606135 63.0106C0.606568 61.6474 0.605945 60.2843 0.602614 58.9211C0.599598 57.6387 0.600075 56.3563 0.60319 55.0738C0.603755 54.6045 0.603108 54.1351 0.601127 53.6657C0.577877 47.7253 2.64603 44.381 7.19808 40.0856C7.90184 39.4203 8.58388 38.7397 9.25828 38.0512C9.42839 37.8784 9.6029 37.7087 9.78641 37.5469C9.63588 37.5159 9.48535 37.4849 9.33025 37.453C7.6455 37.0638 6.17549 36.5399 5.15658 35.2356C4.14074 33.5571 4.238 31.7659 4.23825 29.9104C4.23773 29.4688 4.23338 29.0273 4.22884 28.5858C4.20962 24.6177 4.20962 24.6177 5.71837 22.9922C7.5429 21.3972 9.26436 21.4387 11.7157 21.4365ZM13.6699 38.6058C13.5729 38.7436 13.4758 38.8815 13.3759 39.0235C13.0179 39.3758 12.6592 39.7275 12.299 40.0781C11.5181 40.8409 10.7463 41.6097 9.98177 42.3853C9.47992 42.8876 8.96733 43.3807 8.45532 43.875C5.68709 46.5891 4.52189 48.5765 4.52189 52.3125C24.0269 52.3125 43.532 52.3125 63.6281 52.3125C63.6281 48.4677 62.1256 46.3369 59.2413 43.632C58.7279 43.1489 58.2271 42.6612 57.7354 42.1612C57.1152 41.5307 56.4854 40.9086 55.851 40.2891C55.0295 39.4868 54.2174 38.6781 53.4132 37.8625C53.2342 37.6826 53.0517 37.5051 52.8598 37.336C52.3761 37.3118 51.8914 37.3027 51.4069 37.2992C51.2535 37.2979 51.1001 37.2965 50.942 37.2951C50.4242 37.2908 49.9063 37.288 49.3885 37.2852C49.0186 37.2825 48.6488 37.2798 48.279 37.2769C44.8987 37.2524 41.5183 37.2405 38.1379 37.2312C35.6386 37.2242 33.1394 37.2116 30.6401 37.1916C28.8836 37.1781 27.1272 37.171 25.3706 37.1686C24.3212 37.167 23.2721 37.1625 22.2228 37.1511C21.2347 37.1404 20.247 37.1378 19.2589 37.1412C18.8969 37.1411 18.5348 37.1381 18.1729 37.132C16.2374 37.1009 14.8504 37.0941 13.6699 38.6058ZM4.52189 55.6875C4.52189 68.0084 4.52189 80.3292 4.52189 93.0235C24.0269 93.0235 43.532 93.0235 63.6281 93.0235C63.6281 80.7026 63.6281 68.3817 63.6281 55.6875C44.1231 55.6875 24.618 55.6875 4.52189 55.6875Z" fill="white"/>
<path d="M92.9419 -0.0921746C93.127 -0.0919027 93.3121 -0.0916308 93.5028 -0.0913507C94.1365 0.0209792 94.3454 0.186009 94.7366 0.632923C94.9556 1.21186 95.0056 1.54718 95.0047 2.14263C95.0052 2.41017 95.0052 2.41017 95.0057 2.68311C95.0044 2.97556 95.0044 2.97556 95.0031 3.27392C95.0031 3.47975 95.0032 3.68558 95.0032 3.89765C95.0031 4.57903 95.0012 5.26041 94.9993 5.94179C94.9989 6.41381 94.9985 6.88584 94.9983 7.35786C94.9974 8.60106 94.995 9.84425 94.9924 11.0874C94.9899 12.3557 94.9888 13.624 94.9876 14.8922C94.9851 17.3813 94.981 19.8704 94.9759 22.3595C95.1381 22.3567 95.3003 22.354 95.4673 22.3511C95.6812 22.349 95.8951 22.3469 96.1154 22.3447C96.3269 22.3419 96.5384 22.3391 96.7564 22.3363C97.8068 22.3761 98.6372 22.6514 99.4039 23.2939C100.221 24.1189 100.511 24.7534 100.503 25.8292C100.502 26.0974 100.502 26.0974 100.501 26.371C100.498 26.6498 100.498 26.6498 100.495 26.9342C100.494 27.1225 100.493 27.3108 100.491 27.5048C100.489 27.9694 100.485 28.434 100.48 28.8985C100.95 28.8947 101.42 28.8908 101.891 28.887C102.896 28.9101 103.719 29.0443 104.484 29.6475C105.639 30.7794 105.774 31.5758 105.778 33.0965C105.779 33.2429 105.779 33.3893 105.78 33.5401C105.782 34.0306 105.782 34.5211 105.783 35.0116C105.784 35.3633 105.785 35.715 105.786 36.0667C105.79 37.022 105.791 37.9773 105.792 38.9326C105.793 39.5293 105.794 40.1261 105.795 40.7228C105.798 42.5896 105.801 44.4564 105.801 46.3232C105.803 48.4787 105.807 50.6342 105.814 52.7898C105.819 54.4558 105.821 56.1218 105.822 57.7878C105.822 58.783 105.823 59.7782 105.828 60.7734C105.831 61.7092 105.832 62.645 105.83 63.5808C105.83 63.9242 105.831 64.2677 105.833 64.6111C105.836 65.08 105.835 65.5487 105.832 66.0176C105.833 66.28 105.833 66.5423 105.833 66.8127C105.736 67.5645 105.547 67.9587 105.026 68.5548C104.225 68.9078 103.807 69.0243 102.933 68.8317C102.394 68.5548 102.394 68.5548 101.916 67.922C101.857 67.2874 101.857 67.2874 101.858 66.4925C101.858 66.3464 101.857 66.2003 101.857 66.0498C101.856 65.5591 101.859 65.0684 101.861 64.5777C101.861 64.2264 101.861 63.8751 101.861 63.5238C101.861 62.569 101.864 61.6142 101.867 60.6594C101.87 59.6619 101.87 58.6645 101.871 57.6671C101.872 55.7778 101.876 53.8885 101.881 51.9992C101.887 49.4466 101.89 46.8939 101.893 44.3413C101.897 40.3187 101.907 36.2961 101.916 32.2735C96.0719 32.2735 90.2283 32.2735 84.2076 32.2735C84.2076 33.7353 84.2076 35.1971 84.2076 36.7032C85.414 36.67 85.414 36.67 86.6199 36.6272C87.5158 36.6148 87.9581 36.6623 88.7496 37.0757C89.2545 37.5681 89.3968 37.7402 89.3824 38.3907C89.3855 38.53 89.3886 38.6692 89.3917 38.8126C89.1336 39.4979 88.733 39.7144 88.0363 40.0782C87.3665 40.1754 86.7236 40.1585 86.0472 40.131C85.1366 40.1049 85.1366 40.1049 84.2076 40.0782C84.2076 41.3312 84.2076 42.5842 84.2076 43.8751C85.3351 43.8502 85.3351 43.8502 86.4624 43.8181C87.5164 43.8064 88.1603 43.9366 88.9935 44.5079C89.3635 45.1601 89.3031 45.688 89.2328 46.4064C88.8804 46.8727 88.8804 46.8727 88.2756 47.2501C87.5726 47.3519 86.8917 47.3296 86.1818 47.3028C85.5303 47.2854 84.8788 47.268 84.2076 47.2501C84.2076 48.5727 84.2076 49.8953 84.2076 51.2579C85.5035 51.2247 85.5035 51.2247 86.799 51.1819C87.6871 51.1704 88.1379 51.1713 88.8786 51.637C89.3933 52.3121 89.3456 52.783 89.2328 53.5782C88.8116 54.2501 88.6349 54.3868 87.7971 54.6329C87.1809 54.6478 86.5732 54.6526 85.9575 54.6461C85.0913 54.6396 85.0913 54.6396 84.2076 54.6329C84.2076 55.8859 84.2076 57.1389 84.2076 58.4298C85.414 58.3966 85.414 58.3966 86.6199 58.3538C87.5158 58.3414 87.9581 58.3889 88.7496 58.8022C89.2545 59.2946 89.3968 59.4668 89.3824 60.1173C89.3855 60.2565 89.3886 60.3957 89.3917 60.5392C89.1336 61.2244 88.733 61.441 88.0363 61.8048C87.3665 61.902 86.7236 61.885 86.0472 61.8575C85.4401 61.8401 84.8331 61.8227 84.2076 61.8048C84.2076 63.0578 84.2076 64.3107 84.2076 65.6017C85.3351 65.5768 85.3351 65.5768 86.4624 65.5447C87.5164 65.533 88.1603 65.6632 88.9935 66.2345C89.3635 66.8866 89.3031 67.4145 89.2328 68.1329C88.8804 68.5993 88.8804 68.5993 88.2756 68.9767C87.5726 69.0785 86.8917 69.0562 86.1818 69.0294C85.5303 69.012 84.8788 68.9946 84.2076 68.9767C84.2076 70.2993 84.2076 71.6218 84.2076 72.9845C85.5035 72.9512 85.5035 72.9512 86.799 72.9085C87.6871 72.897 88.1379 72.8979 88.8786 73.3635C89.3933 74.0387 89.3456 74.5096 89.2328 75.3048C88.8116 75.9766 88.6349 76.1133 87.7971 76.3595C87.1809 76.3743 86.5732 76.3792 85.9575 76.3727C85.0913 76.3661 85.0913 76.3661 84.2076 76.3595C84.2076 77.7517 84.2076 79.1439 84.2076 80.5782C90.0512 80.5782 95.8948 80.5782 101.916 80.5782C101.878 77.9782 101.878 77.9782 101.829 75.3783C101.827 75.0517 101.824 74.7251 101.822 74.3984C101.817 74.2297 101.812 74.0609 101.807 73.887C101.807 73.1106 101.83 72.6621 102.37 72.0325C103.218 71.5038 103.767 71.6189 104.787 71.7189C105.427 72.101 105.495 72.3259 105.744 72.9845C105.765 73.5607 105.772 74.1313 105.768 74.7074C105.767 74.9589 105.767 74.9589 105.767 75.2155C105.765 75.7506 105.762 76.2858 105.759 76.8209C105.758 77.1839 105.757 77.5468 105.756 77.9098C105.753 78.7993 105.749 79.6888 105.744 80.5782C105.908 80.5753 106.071 80.5724 106.239 80.5694C106.454 80.5672 106.669 80.5649 106.89 80.5626C107.103 80.5597 107.316 80.5568 107.535 80.5538C108.372 80.5878 108.887 80.7935 109.573 81.211C110.984 82.5894 110.821 83.685 110.829 85.4825C110.834 85.7417 110.839 86.0008 110.844 86.2678C110.846 86.6442 110.846 86.6442 110.848 87.0283C110.85 87.2576 110.853 87.4869 110.855 87.7231C110.723 88.7428 110.303 89.4287 109.481 90.1462C108.177 90.6679 106.948 90.5813 105.535 90.545C104.577 90.5276 103.62 90.5102 102.633 90.4923C102.633 93.0678 102.633 95.6434 102.633 98.297C104.538 98.2637 104.538 98.2637 106.442 98.221C108.943 98.1989 108.943 98.1989 110.052 99.1407C111.072 100.385 110.884 101.654 110.874 103.135C110.879 103.402 110.884 103.668 110.889 103.942C110.887 106.383 110.887 106.383 109.812 107.367C109.052 107.971 108.568 108.08 107.551 108.082C107.153 108.085 107.153 108.085 106.747 108.088C106.458 108.087 106.168 108.086 105.87 108.085C105.564 108.087 105.258 108.088 104.943 108.09C104.104 108.094 103.266 108.093 102.427 108.092C101.727 108.091 101.026 108.093 100.325 108.094C98.6724 108.097 97.0194 108.097 95.3663 108.094C93.6623 108.092 91.9583 108.095 90.2543 108.1C88.7903 108.105 87.3262 108.106 85.8621 108.105C84.9882 108.105 84.1143 108.105 83.2404 108.109C82.2653 108.113 81.2905 108.11 80.3154 108.106C79.8824 108.109 79.8824 108.109 79.4406 108.112C77.9314 108.1 76.9676 108.071 75.8322 107.156C74.8187 105.98 75.0086 104.559 75.0246 103.149C75.0218 102.903 75.019 102.658 75.0162 102.405C75.0253 100.077 75.0253 100.077 75.8322 99.1407C76.7385 98.3497 77.4876 98.2428 78.7169 98.2146C79.261 98.2194 79.805 98.2303 80.3489 98.2443C81.3064 98.2617 82.2639 98.2791 83.2504 98.297C83.2504 95.7214 83.2504 93.1459 83.2504 90.4923C81.4357 90.5255 81.4357 90.5255 79.6212 90.5683C78.0677 90.5826 77.058 90.5246 75.8322 89.6485C74.8044 88.4947 75.0088 87.0391 75.0246 85.6407C75.0218 85.3955 75.019 85.1502 75.0162 84.8975C75.0249 82.6517 75.0249 82.6517 75.8322 81.6329C76.936 80.7098 77.7557 80.5478 79.2422 80.5651C79.4557 80.567 79.6691 80.5689 79.889 80.5708C80.1315 80.5745 80.1315 80.5745 80.3789 80.5782C80.378 80.3239 80.3771 80.0696 80.3762 79.8076C80.3555 73.7711 80.3397 67.7345 80.33 61.698C80.3288 60.955 80.3275 60.212 80.3263 59.469C80.326 59.3211 80.3258 59.1732 80.3255 59.0208C80.3214 56.6257 80.3138 54.2307 80.305 51.8356C80.2961 49.3781 80.2908 46.9206 80.2888 44.4631C80.2876 43.0827 80.2846 41.7023 80.2777 40.322C80.2712 39.0231 80.2692 37.7243 80.2706 36.4254C80.2703 35.9484 80.2684 35.4713 80.2648 34.9943C80.26 34.3435 80.2611 33.6928 80.2638 33.042C80.261 32.8528 80.2582 32.6636 80.2553 32.4687C80.2678 31.3168 80.4604 30.6538 81.336 29.7423C82.3845 29.0723 83.2098 28.8888 84.4796 28.8944C84.9372 28.8965 84.9372 28.8965 85.4041 28.8985C85.3916 28.5131 85.3916 28.5131 85.3788 28.1199C85.3721 27.7774 85.3656 27.4349 85.3592 27.0924C85.3532 26.9237 85.3472 26.755 85.341 26.5811C85.3231 25.2951 85.5003 24.2769 86.4725 23.2576C87.6557 22.4553 88.4214 22.3309 89.8909 22.3463C90.1266 22.3482 90.3622 22.3501 90.605 22.3521C90.784 22.3545 90.9629 22.357 91.1472 22.3595C91.1448 21.958 91.1448 21.958 91.1424 21.5483C91.1278 19.028 91.1171 16.5077 91.11 13.9873C91.1063 12.6915 91.1012 11.3958 91.093 10.1C91.0853 8.84991 91.081 7.59986 91.0791 6.34977C91.0778 5.8724 91.0752 5.39503 91.0713 4.91768C91.0661 4.24999 91.0654 3.58241 91.0657 2.91471C91.0631 2.71656 91.0605 2.51841 91.0579 2.31425C91.0651 0.978636 91.0651 0.978636 91.479 0.299097C91.9851 -0.0928308 92.2745 -0.106882 92.9419 -0.0921746ZM89.2328 25.7345C89.2328 26.7786 89.2328 27.8228 89.2328 28.8985C91.6808 28.8985 94.1288 28.8985 96.651 28.8985C96.651 27.8544 96.651 26.8103 96.651 25.7345C94.203 25.7345 91.755 25.7345 89.2328 25.7345ZM78.9431 83.9532C78.9431 84.9974 78.9431 86.0415 78.9431 87.1173C88.1823 87.1173 97.4216 87.1173 106.941 87.1173C106.941 86.0732 106.941 85.029 106.941 83.9532C97.7015 83.9532 88.4623 83.9532 78.9431 83.9532ZM87.0792 90.4923C87.0792 93.0678 87.0792 95.6434 87.0792 98.297C90.9486 98.297 94.818 98.297 98.8047 98.297C98.8047 95.7214 98.8047 93.1459 98.8047 90.4923C94.9353 90.4923 91.0658 90.4923 87.0792 90.4923ZM78.9431 101.672C78.9431 102.716 78.9431 103.76 78.9431 104.836C88.1823 104.836 97.4216 104.836 106.941 104.836C106.941 103.792 106.941 102.748 106.941 101.672C97.7015 101.672 88.4623 101.672 78.9431 101.672Z" fill="white"/>
<path d="M42.213 72.781C44.7113 74.8376 46.117 77.4041 46.2553 80.4029C46.3091 83.2081 45.4832 85.8467 43.3244 87.975C41.6348 89.3934 39.9485 89.7263 37.6598 89.6914C37.0662 89.6485 37.0662 89.6485 36.6306 89.5414C35.8202 89.3801 35.0061 89.4073 34.1797 89.4112C33.9213 89.41 33.9213 89.41 33.6577 89.4088C32.896 89.41 32.29 89.4348 31.5624 89.6485C29.125 89.8057 27.2337 89.7094 25.2164 88.4192C23.3918 87.0109 22.1555 84.74 21.941 82.6197C21.82 80.6426 21.7478 78.6107 22.7084 76.7814C22.7991 76.597 22.8898 76.4126 22.9833 76.2227C24.5237 73.4207 26.9448 71.808 30.1266 70.6642C30.2929 70.6038 30.4592 70.5434 30.6305 70.4812C34.5761 69.3603 39.1196 70.5681 42.213 72.781ZM27.4944 76.3595C25.8405 78.3833 25.5576 80.2403 25.8193 82.6876C26.1908 84.0313 27.0891 85.1121 28.2123 86.0626C28.7721 86.3093 29.1153 86.3017 29.7378 86.2999C29.9222 86.3005 30.1067 86.301 30.2968 86.3016C30.8327 86.2906 30.8327 86.2906 31.2882 86.1681C31.8447 86.0538 32.3374 86.0353 32.9085 86.0346C33.117 86.0343 33.3255 86.034 33.5404 86.0338C33.7563 86.0346 33.9722 86.0354 34.1947 86.0362C34.4106 86.0354 34.6265 86.0346 34.849 86.0338C35.1618 86.0342 35.1618 86.0342 35.4809 86.0346C35.6703 86.0348 35.8597 86.0351 36.0548 86.0353C36.5827 86.0624 37.0353 86.1541 37.5448 86.2735C38.5145 86.3527 39.0842 86.3309 39.9677 85.9571C41.4665 84.8083 42.2227 83.3826 42.3915 81.6379C42.4805 79.4766 41.9018 77.8124 40.3584 76.1238C38.5569 74.4229 36.7367 73.6128 34.1049 73.525C31.2953 73.6 29.3565 74.5143 27.4944 76.3595Z" fill="white"/>
<path d="M52.7102 65.5356C53.733 66.3298 54.2089 66.9531 54.3956 68.1311C54.4874 69.9907 54.0725 71.3837 52.6607 72.7874C51.3501 73.8789 50.0147 74.4647 48.2085 74.5532C46.8332 74.5029 45.5374 74.1475 44.5704 73.2546C43.472 71.9413 43.3546 70.7686 43.5272 69.1874C43.9233 67.9502 44.5663 67.0731 45.6809 66.2343C45.8783 66.082 46.0757 65.9298 46.2791 65.7729C48.2907 64.4874 50.5496 64.5833 52.7102 65.5356ZM48.3132 68.7656C47.7283 69.2429 47.7283 69.2429 47.356 69.8203C47.3874 70.4006 47.3874 70.4006 47.5953 70.8749C47.9996 71.0617 47.9996 71.0617 48.5525 71.0859C49.4169 70.6592 49.9146 70.3394 50.4668 69.6093C50.5068 68.9501 50.5068 68.9501 50.4668 68.3437C49.5247 68.0053 49.1012 68.2446 48.3132 68.7656Z" fill="white"/>
<path d="M30.3238 59.402C31.6483 60.1482 32.66 61.2675 33.1328 62.5932C33.4755 64.1549 33.4284 65.6518 32.6018 67.0831C31.9083 67.9824 31.0575 68.6327 29.8873 68.9766C28.1776 69.1251 26.7467 69.0569 25.3407 68.1328C24.0498 67.088 23.27 65.9882 23.1113 64.4422C23.0581 62.9172 23.022 61.5578 24.1442 60.3281C25.9159 58.668 28.0481 58.418 30.3238 59.402ZM27.4943 62.2266C26.9207 62.6432 26.9207 62.6432 26.926 63.4395C26.9457 64.3887 27.31 64.8711 27.9729 65.6016C28.5646 65.5289 28.5646 65.5289 29.1694 65.3906C29.5123 64.7861 29.482 64.3754 29.4087 63.7031C28.8719 62.7925 28.8719 62.7925 27.943 62.2266C27.795 62.2266 27.6469 62.2266 27.4943 62.2266Z" fill="white"/>
<path d="M21.8409 65.7334C23.5345 67.0116 24.493 68.3515 24.6975 70.3345C24.5673 71.6428 24.2274 72.5933 23.0972 73.4853C21.7466 74.3981 20.5654 74.6449 18.8796 74.4609C17.0274 74.0616 15.7449 73.2441 14.5723 71.9297C13.7801 70.7133 13.3949 69.2646 13.7282 67.8708C14.1778 66.7229 14.7881 65.8652 15.9931 65.2324C17.9254 64.5372 20.1038 64.6506 21.8409 65.7334ZM17.743 68.436C17.6443 68.5448 17.5456 68.6535 17.4439 68.7656C17.7302 69.6911 17.9969 70.2914 18.8796 70.875C19.6087 71.0819 19.6087 71.0819 20.3154 71.0859C20.4734 70.9467 20.6313 70.8075 20.794 70.664C20.8276 70.0477 20.8276 70.0477 20.5547 69.3984C19.9363 68.8533 19.3918 68.4537 18.5955 68.1328C18.1273 68.0924 18.1273 68.0924 17.743 68.436Z" fill="white"/>
<path d="M42.8514 59.4283C44.0223 60.1444 44.5811 61.0241 44.963 62.2265C45.2167 64.0814 44.9637 65.5256 43.7665 67.0781C42.7942 68.1156 41.7303 68.8785 40.1995 69.0581C38.7206 69.1049 37.7158 69.0544 36.5876 68.1328C35.3226 66.9927 34.8423 65.9953 34.8079 64.4018C34.8417 62.7255 35.2822 61.5536 36.5643 60.3075C38.417 58.7809 40.5821 58.3122 42.8514 59.4283ZM39.2947 62.7539C38.5708 63.5611 38.6086 64.1774 38.7413 65.1796C38.8992 65.3189 39.0572 65.4581 39.2199 65.6015C39.8206 65.6153 39.8206 65.6153 40.4164 65.3906C41.0155 64.7714 41.1294 64.3856 41.209 63.5712C41.196 62.8323 41.196 62.8323 40.6557 62.2265C39.879 62.1547 39.879 62.1547 39.2947 62.7539Z" fill="white"/>
<path d="M30.852 42.8912C31.1077 42.8902 31.3635 42.8892 31.6269 42.8882C32.1668 42.8875 32.7066 42.8894 33.2465 42.8938C34.0722 42.8995 34.8972 42.8939 35.723 42.8871C36.248 42.8878 36.773 42.8892 37.298 42.8912C37.5446 42.8891 37.7911 42.887 38.0452 42.8848C39.1881 42.9012 39.7552 42.911 40.6917 43.5279C41.1343 44.086 41.1343 44.086 41.2838 44.7188C41.0743 45.6055 40.7629 45.8633 39.9378 46.4063C39.058 46.5615 38.1928 46.5491 37.298 46.539C37.0423 46.5395 36.7866 46.54 36.5231 46.5405C35.9832 46.5403 35.4434 46.5375 34.9036 46.5322C34.0779 46.525 33.2528 46.5279 32.4271 46.532C31.902 46.5305 31.377 46.5285 30.852 46.5258C30.4822 46.5274 30.4822 46.5274 30.1049 46.529C29.046 46.5136 28.3881 46.4959 27.4584 46.0223C27.0158 45.5626 27.0158 45.5626 26.8662 44.8375C27.2628 42.8447 28.939 42.8747 30.852 42.8912Z" fill="white"/>
<path d="M25.6024 27.3378C26.0586 27.4219 26.0586 27.4219 26.6568 27.6987C27.2422 28.6232 27.2198 29.5556 27.0158 30.5859C26.4016 31.2707 26.0576 31.3997 25.0864 31.522C24.3092 31.4199 23.9781 31.2833 23.4263 30.7969C23.1291 30.0108 23.0627 29.293 23.187 28.4766C23.7666 27.4548 24.3679 27.2526 25.6024 27.3378Z" fill="white"/>
<path d="M16.7484 27.3369C17.2046 27.4218 17.2046 27.4218 17.8028 27.7118C18.3652 28.5792 18.3668 29.4022 18.1618 30.3749C17.5812 31.1275 17.2566 31.3761 16.2474 31.5614C15.2475 31.3778 14.9148 31.1139 14.3331 30.3749C14.1082 29.4219 14.2075 28.7025 14.692 27.8305C15.4196 27.3334 15.846 27.276 16.7484 27.3369Z" fill="white"/>
<path d="M52.8598 27.4219C53.4997 27.8041 53.5679 28.0289 53.8169 28.6876C53.9056 29.7421 53.8361 30.3692 53.0991 31.2188C52.4163 31.5197 51.9422 31.4952 51.1847 31.4297C50.4967 31.1529 50.4967 31.1529 49.9882 30.586C49.7842 29.5557 49.7618 28.6232 50.3471 27.6988C51.2508 27.2806 51.8423 27.3223 52.8598 27.4219Z" fill="white"/>
<path d="M33.9105 27.356C34.5896 27.371 34.8964 27.4144 35.5108 27.6987C36.0961 28.6232 36.0737 29.5556 35.8697 30.5859C35.257 31.2691 34.9055 31.3963 33.9404 31.5352C33.0824 31.4064 32.8143 31.1786 32.2803 30.5859C31.9137 29.9396 31.9861 29.4012 32.041 28.6875C32.7487 27.4399 32.7487 27.4399 33.9105 27.356Z" fill="white"/>
<path d="M44.0058 27.4218C44.5106 27.7499 44.6938 27.9604 44.8629 28.4946C45.0552 30.1775 45.0552 30.1775 44.4844 31.0077C43.6438 31.5017 43.3203 31.5343 42.3307 31.4296C41.6427 31.166 41.6427 31.166 41.1342 30.5859C40.9797 29.7272 40.9367 28.9084 41.1342 28.0546C42.0267 27.2386 42.7882 27.3196 44.0058 27.4218Z" fill="white"/>
</g>
<defs>
<clipPath id="clip0_114_1077">
<rect width="110.076" height="108" fill="white" transform="translate(0.693115)"/>
</clipPath>
</defs>
</svg>
